<?xml version="1.0" encoding="utf-8"?>
<!-- Generator: Adobe Illustrator 22.0.1, SVG Export Plug-In . SVG Version: 6.00 Build 0)  -->
<svg version="1.1" id="Layer_1" xmlns="http://www.w3.org/2000/svg" xmlns:xlink="http://www.w3.org/1999/xlink" x="0px" y="0px"
	 viewBox="0 0 941.3 491.5" style="enable-background:new 0 0 941.3 491.5;" xml:space="preserve">
<style type="text/css">
	.st0{fill:none;stroke:#415C91;stroke-miterlimit:10;}
	.st1{fill:#B8CDEA;}
	.st2{fill:#FFFFFF;stroke:#415C91;stroke-miterlimit:10;}
	.st3{fill:#415C91;}
	.st4{fill:#223F80;}
	.st5{fill:#FFFFFF;stroke:#415C91;stroke-width:0.75;stroke-miterlimit:10;}
	.st6{fill:#7CC369;stroke:#50A94F;stroke-miterlimit:10;}
	.st7{fill:#7CC369;}
	.st8{fill:#50A94F;}
	.st9{fill:#FFFFFF;}
	.st10{fill:none;stroke:#B8CDEA;stroke-width:1.4;stroke-miterlimit:10;}
	.st11{fill:none;stroke:#50A94F;stroke-width:1.4;stroke-linecap:round;stroke-miterlimit:10;}
	.st12{fill:#231F20;}
	.st13{fill:#B8CDEA;stroke:#415C91;stroke-miterlimit:10;}
	.st14{fill:none;stroke:#FFFFFF;stroke-width:2;stroke-miterlimit:10;}
	.st15{fill:none;stroke:#B8CDEA;stroke-width:2;stroke-miterlimit:10;}
	.st16{fill:none;stroke:#50A94F;stroke-width:2;stroke-linecap:round;stroke-miterlimit:10;}
	.st17{fill:none;stroke:#50A94F;stroke-miterlimit:10;}
	.st18{fill:none;stroke:#B8CDEA;stroke-width:4;stroke-linecap:round;stroke-miterlimit:10;}
	.st19{fill:none;stroke:#415C91;stroke-linecap:round;stroke-miterlimit:10;}



	
</style>
<line class="st0" x1="842.6" y1="110.4" x2="842.6" y2="142.3"/>
<line class="st0" x1="842.6" y1="146.5" x2="842.6" y2="158.8"/>
<line class="st0" x1="842.6" y1="163.2" x2="842.6" y2="170.7"/>
<path class="st1" d="M572.3,333.5v-26.2c0,0,5.5-2.5,8.4,2.3c3,4.7,1.4,15.5,1.4,15.5c5-0.5,10.2-1.5,15.1-0.5
	c2.5,0.5,4.5,1.4,5.6,3.8c0.7,1.5,1.6,5.1-1.2,5.1H601L572.3,333.5L572.3,333.5z"/>
<path class="st2" d="M337,196.5v-35.9c0-6.5-5.3-11.8-11.8-11.8l0,0c-6.5,0-11.8,5.3-11.8,11.8v35.9H337z"/>
<rect x="174.6" y="259.8" class="st1" width="35.2" height="34.8"/>
<rect x="218.7" y="259.8" class="st1" width="35.2" height="34.8"/>
<rect x="262.8" y="259.8" class="st1" width="35.2" height="34.8"/>
<rect x="187.7" y="259.8" class="st3" width="8.9" height="17.4"/>
<rect x="231.8" y="259.8" class="st3" width="8.9" height="17.4"/>
<rect x="275.9" y="259.8" class="st3" width="8.9" height="17.4"/>
<path class="st2" d="M423.6,181.6c2.2,6.6-1.6,13.8-8.6,16.2l0,0c-7,2.4-14.5-1-16.7-7.6l-27.5-81c-2.2-6.6,1.6-13.8,8.6-16.2l0,0
	c7-2.4,14.5,1,16.7,7.6L423.6,181.6z"/>
<rect x="413.7" y="252.8" class="st3" width="8.9" height="17.4"/>
<g>
	<rect x="353.7" y="251.3" class="st1" width="35.2" height="34.8"/>
	<rect x="366.9" y="251.3" class="st3" width="8.9" height="17.4"/>
	<rect x="462.6" y="251.3" class="st1" width="35.2" height="34.8"/>
	<rect x="475.7" y="251.3" class="st4" width="8.9" height="17.4"/>
</g>
<path class="st2" d="M483.5,78.1c0,4.7-3.8,8.5-8.5,8.5h-38.5c-4.7,0-8.5-3.8-8.5-8.5V13.3c0-4.7,3.8-8.5,8.5-8.5H475
	c4.7,0,8.5,3.8,8.5,8.5V78.1z"/>
<path class="st2" d="M414.8,170.8L414.8,170.8L414.8,170.8c-0.7-0.2-1.4-0.4-2.1-0.6l-81.5-22.4c-1.3-0.4-2.7-0.6-4.1-0.6
	c-7.4,0-13.5,6-13.5,13.5c0,5.6,3.4,10.4,8.3,12.4l0,0l80.8,30.6l0,0c2,0.8,4.2,1.3,6.5,1.3c9.7,0,17.5-7.8,17.5-17.5
	C426.7,179.6,421.7,173.1,414.8,170.8z"/>
<polygon class="st3" points="304.7,201.2 286.5,207 307.6,243.4 298.6,209.9 305.2,207 "/>
<polygon class="st3" points="344.8,201.2 363.1,207 342.8,243.4 351,209.9 344.4,207 "/>
<rect x="303.7" y="194.8" class="st2" width="43.1" height="12.2"/>
<path class="st2" d="M364.1,314.3c0,9.2-7.5,16.7-16.7,16.7H147.2c-9.2,0-16.7-7.5-16.7-16.7l0,0c0-9.2,7.5-16.7,16.7-16.7h200.3
	C356.7,297.6,364.1,305,364.1,314.3L364.1,314.3z"/>
<circle class="st1" cx="148.7" cy="314.3" r="11.5"/>
<circle class="st5" cx="148.7" cy="314.3" r="6.5"/>
<circle class="st1" cx="179.7" cy="314.3" r="11.5"/>
<circle class="st5" cx="179.7" cy="314.3" r="6.5"/>
<circle class="st1" cx="210.5" cy="314.3" r="11.5"/>
<circle class="st5" cx="210.5" cy="314.3" r="6.5"/>
<circle class="st1" cx="241.8" cy="314.1" r="11.5"/>
<circle class="st5" cx="241.8" cy="314.1" r="6.5"/>
<circle class="st1" cx="272.8" cy="314.3" r="11.5"/>
<circle class="st5" cx="272.8" cy="314.3" r="6.5"/>
<circle class="st1" cx="303.9" cy="314.3" r="11.5"/>
<circle class="st5" cx="303.9" cy="314.3" r="6.5"/>
<g>
	<path class="st6" d="M236.3,148.8c-18.1,0-32.7,14.7-32.7,32.7c0,14.9,23.8,50.2,32.7,65.6c8.9-15.5,32.7-50.7,32.7-65.6
		C269,163.5,254.4,148.8,236.3,148.8z M236.3,197.4c-8.8,0-15.9-7.1-15.9-15.9c0-8.8,7.1-15.9,15.9-15.9c8.8,0,15.9,7.1,15.9,15.9
		C252.2,190.3,245,197.4,236.3,197.4z"/>
</g>
<g>
	<g>
		<g>
			<path class="st7" d="M709.2,360.6c0.9-3,3-5.8,6-6.8s6.8,0.5,7.7,3.5c2.7-2.3,6.9-0.5,9.1,2.3c3.6,4.5,0.8,12,0.2,12.5
				s-2.4,0.4-2.4,0.4l-26.7-0.1c0,0-4.9-0.4-7.1-1.3c-4.5-1.8-7.6-9.6-4.7-13.5c2-2.7,5.9-3.2,9.1-2.2
				C703.6,356.4,706.7,358.4,709.2,360.6"/>
		</g>
		<g>
			<path class="st8" d="M729.8,373.5l-26.7-0.1c-0.2,0-5.1-0.4-7.4-1.3c-2.6-1.1-5-4-6-7.4c-0.8-2.9-0.5-5.6,0.9-7.5
				c2.4-3.2,6.9-3.6,10.1-2.5c2.7,0.8,5.5,2.4,8.1,4.6c1.2-3,3.5-5.2,6.1-6.1c1.8-0.6,4-0.4,5.7,0.5c1.2,0.6,2.1,1.5,2.6,2.5
				c1-0.5,2-0.7,3.2-0.6c2.2,0.2,4.6,1.6,6.2,3.7c3.8,4.8,1.1,12.8,0.1,13.7c-0.7,0.6-1.9,0.6-2.6,0.6
				C730.1,373.5,729.9,373.5,729.8,373.5z M723.4,358c-0.2,0.2-0.5,0.3-0.8,0.2c-0.3-0.1-0.5-0.3-0.6-0.6c-0.3-1-1.1-1.9-2.2-2.5
				c-1.3-0.7-3-0.9-4.4-0.4c-2.5,0.8-4.5,3.1-5.4,6.2c-0.1,0.3-0.3,0.5-0.6,0.6s-0.6,0-0.8-0.2c-2.7-2.4-5.7-4.1-8.4-5
				c-2.6-0.8-6.3-0.6-8.1,1.9c-1,1.4-1.3,3.6-0.6,5.9c0.8,2.9,2.8,5.4,4.9,6.3c2.1,0.8,6.8,1.2,6.8,1.2l26.7,0.1
				c0.7,0,1.6-0.1,1.7-0.2c0.5-0.7,2.8-7.3-0.3-11.3c-1.3-1.6-3.3-2.8-5-3c-0.2,0-0.3,0-0.5,0C724.9,357.2,724.1,357.5,723.4,358z"
				/>
		</g>
	</g>
	<g>
		<g>
			<g>
				<path class="st8" d="M737.2,359.6c0.8,1.5,1.1,3.1,0.9,4.8c-0.1,0.8-1.4,0.8-1.3,0c0.2-1.4-0.1-2.8-0.7-4.1
					C735.7,359.5,736.8,358.8,737.2,359.6L737.2,359.6z"/>
			</g>
		</g>
	</g>
	<g>
		<g>
			<g>
				<path class="st8" d="M741.1,360.7c0.4,1.5,0.4,3,0.1,4.5c-0.2,0.8-1.5,0.5-1.3-0.4c0.3-1.3,0.2-2.5-0.1-3.8
					C739.6,360.2,740.9,359.8,741.1,360.7L741.1,360.7z"/>
			</g>
		</g>
	</g>
	<g>
		<g>
			<g>
				<path class="st8" d="M733.7,358c-0.8,0-0.9-1.3,0-1.3C734.5,356.7,734.5,358,733.7,358L733.7,358z"/>
			</g>
		</g>
	</g>
	<g>
		<g>
			<g>
				<path class="st8" d="M729.9,364.4c0,0.4,0,0.8,0,1.2c0,0.8-1.3,0.9-1.3,0c0-0.4,0-0.8,0-1.2
					C728.6,363.5,729.9,363.5,729.9,364.4L729.9,364.4z"/>
			</g>
		</g>
	</g>
	<g>
		<g>
			<g>
				<path class="st8" d="M707.6,366.4c0,0.2,0,0.4,0,0.6c0,0.8-1.3,0.9-1.3,0c0-0.2,0-0.4,0-0.6
					C706.3,365.6,707.6,365.6,707.6,366.4L707.6,366.4z"/>
			</g>
		</g>
	</g>
	<g>
		<g>
			<g>
				<path class="st8" d="M710.1,364.8c-0.1,0.1-0.2,0.2-0.3,0.3c-0.6,0.6-1.5-0.3-0.9-0.9c0.1-0.1,0.2-0.2,0.3-0.3
					C709.8,363.3,710.7,364.2,710.1,364.8L710.1,364.8z"/>
			</g>
		</g>
	</g>
</g>
<rect x="321" y="289.1" class="st2" width="203.2" height="45.8"/>
<rect x="331.7" y="299.8" class="st1" width="47.1" height="25.9"/>
<path class="st1" d="M394,323.2c0,0.6-0.5,1.2-1.2,1.2l0,0c-0.6,0-1.2-0.5-1.2-1.2v-21.8c0-0.6,0.5-1.2,1.2-1.2l0,0
	c0.6,0,1.2,0.5,1.2,1.2V323.2z"/>
<path class="st1" d="M399.3,323.2c0,0.6-0.5,1.2-1.2,1.2l0,0c-0.6,0-1.2-0.5-1.2-1.2v-21.8c0-0.6,0.5-1.2,1.2-1.2l0,0
	c0.6,0,1.2,0.5,1.2,1.2V323.2z"/>
<path class="st1" d="M405,323.2c0,0.6-0.5,1.2-1.2,1.2l0,0c-0.6,0-1.2-0.5-1.2-1.2v-21.8c0-0.6,0.5-1.2,1.2-1.2l0,0
	c0.6,0,1.2,0.5,1.2,1.2V323.2z"/>
<circle class="st4" cx="392.9" cy="308.4" r="2.2"/>
<circle class="st4" cx="398" cy="314.8" r="2.2"/>
<circle class="st4" cx="403.8" cy="307.7" r="2.2"/>
<path class="st1" d="M410.4,323.2c0,0.6-0.5,1.2-1.2,1.2l0,0c-0.6,0-1.2-0.5-1.2-1.2v-21.8c0-0.6,0.5-1.2,1.2-1.2l0,0
	c0.6,0,1.2,0.5,1.2,1.2V323.2z"/>
<circle class="st4" cx="409.2" cy="302.4" r="2.2"/>
<g>
	<circle class="st1" cx="424.8" cy="307.5" r="3.2"/>
	<circle class="st1" cx="435.7" cy="307.5" r="3.2"/>
	<circle class="st1" cx="446.9" cy="307.5" r="3.2"/>
	<circle class="st1" cx="424.6" cy="317.1" r="3.2"/>
	<circle class="st1" cx="435.6" cy="317.1" r="3.2"/>
	<circle class="st1" cx="446.8" cy="317.1" r="3.2"/>
</g>
<g>
	<path class="st4" d="M477.3,302.6c-0.3,0.6-1.2,0.7-2.1,0.3l0,0c-0.9-0.4-1.4-1.3-1.1-1.8l9.6-19.6c0.3-0.6,1.2-0.7,2.1-0.3l0,0
		c0.9,0.4,1.4,1.3,1.1,1.8L477.3,302.6z"/>
	<circle class="st4" cx="484.7" cy="282.9" r="3.3"/>
</g>
<g>
	<path class="st4" d="M502.1,306c0,0.6-0.7,1.2-1.7,1.3l0,0c-1,0.1-1.8-0.4-1.9-1l-1.5-21.8c0-0.6,0.7-1.2,1.7-1.3l0,0
		c1-0.1,1.8,0.4,1.9,1L502.1,306z"/>
	<circle class="st4" cx="498.7" cy="285.3" r="3.3"/>
</g>
<circle class="st1" cx="473.1" cy="311.6" r="11.5"/>
<circle class="st5" cx="473.1" cy="311.6" r="6.5"/>
<ellipse transform="matrix(0.1602 -0.9871 0.9871 0.1602 114.096 757.3038)" class="st1" cx="502.1" cy="311.6" rx="11.5" ry="11.5"/>
<circle class="st5" cx="502.1" cy="311.6" r="6.5"/>
<path class="st3" d="M456.8,282.7c0,1.9-1.5,3.4-3.4,3.4h-54.9c-1.9,0-3.4-1.5-3.4-3.4v-40.9c0-1.9,1.5-3.4,3.4-3.4h54.9
	c1.9,0,3.4,1.5,3.4,3.4V282.7z"/>
<path class="st9" d="M398.5,284.4c-0.9,0-1.7-0.8-1.7-1.7v-40.9c0-0.9,0.8-1.7,1.7-1.7h54.9c0.9,0,1.7,0.8,1.7,1.7v40.9
	c0,0.9-0.8,1.7-1.7,1.7H398.5z"/>
<path class="st1" d="M937.8,465.4c0,11.6-9.4,21-21,21H768.3c-11.6,0-21-9.4-21-21V195.6c0-11.6,9.4-21,21-21h148.4
	c11.6,0,21,9.4,21,21v269.8H937.8z"/>
<path class="st2" d="M924.7,443c0,10.4-8.5,12.4-19.1,12.4H777.4c-10.5,0-16.9-2-16.9-12.4V224.5c0-10.4,4.3-14.5,14.8-14.5H910
	c10.5,0,14.8,4.2,14.8,14.5L924.7,443L924.7,443z"/>
<circle class="st10" cx="426" cy="262.2" r="14.9"/>
<path class="st11" d="M426,247.3c8.2,0,14.9,6.7,14.9,14.9s-6.7,14.9-14.9,14.9"/>
<g>
	<path class="st12" d="M422,262.9l0.3-2.8h3v0.8H423l-0.2,1.3c0.3-0.1,0.5-0.2,0.9-0.2c0.5,0,0.9,0.2,1.2,0.5
		c0.3,0.3,0.4,0.8,0.4,1.4s-0.2,1-0.5,1.3s-0.8,0.5-1.3,0.5s-0.9-0.1-1.3-0.4s-0.5-0.7-0.5-1.1h0.9c0,0.3,0.1,0.5,0.3,0.6
		c0.2,0.1,0.4,0.2,0.6,0.2c0.3,0,0.5-0.1,0.7-0.3c0.2-0.2,0.2-0.5,0.2-0.8s-0.1-0.6-0.3-0.8s-0.4-0.3-0.7-0.3c-0.2,0-0.3,0-0.4,0.1
		c-0.1,0-0.2,0.1-0.4,0.3L422,262.9z"/>
	<path class="st12" d="M429.8,263.3c0,0.8-0.1,1.4-0.4,1.8s-0.8,0.6-1.4,0.6s-1-0.2-1.4-0.6c-0.3-0.4-0.5-1-0.5-1.8v-1
		c0-0.8,0.1-1.4,0.4-1.8s0.8-0.6,1.4-0.6s1.1,0.2,1.4,0.6s0.5,1,0.5,1.7V263.3z M428.8,262.3c0-0.5-0.1-0.9-0.2-1.1
		s-0.4-0.4-0.7-0.4c-0.3,0-0.5,0.1-0.7,0.3s-0.2,0.6-0.2,1.1v1.3c0,0.5,0.1,0.9,0.2,1.2c0.1,0.3,0.4,0.4,0.7,0.4
		c0.3,0,0.5-0.1,0.7-0.4s0.2-0.6,0.2-1.1V262.3z"/>
</g>
<g>
	<path  transform='rotate(45 140 105) rotate(-45)' class="st1" d="M323.1,97.4l2.4-2.4c0.5-0.5,0.5-1.3,0-1.8l-2.1-2.1c-0.5-0.5-0.6-1.4-0.3-2l1.7-4.1
		c0.2-0.7,0.9-1.2,1.6-1.2h2.9c0.7,0,1.2-0.6,1.2-1.2v-3.4c0-0.7-0.6-1.2-1.2-1.2h-2.9c-0.7,0-1.4-0.5-1.6-1.2l-1.7-4.1
		c-0.3-0.6-0.2-1.5,0.3-2l2.1-2.1c0.5-0.5,0.5-1.3,0-1.7l-2.4-2.4c-0.5-0.5-1.3-0.5-1.8,0l-2.1,2.1c-0.5,0.5-1.4,0.6-2,0.3l-4.1-1.7
		c-0.7-0.2-1.2-0.9-1.2-1.6v-2.9c0-0.7-0.6-1.2-1.2-1.2h-3.4c-0.7,0-1.2,0.6-1.2,1.2v2.9c0,0.7-0.5,1.4-1.2,1.6l-4.1,1.7
		c-0.6,0.3-1.5,0.2-2-0.3l-2.1-2.1c-0.5-0.5-1.3-0.5-1.7,0l-2.4,2.4c-0.5,0.5-0.5,1.3,0,1.7l2.1,2.1c0.5,0.5,0.6,1.4,0.3,2l-1.7,4.1
		c-0.2,0.7-0.9,1.2-1.6,1.2h-2.9c-0.7,0-1.2,0.6-1.2,1.2v3.4c0,0.7,0.6,1.2,1.2,1.2h2.9c0.7,0,1.4,0.5,1.6,1.2l1.7,4.1
		c0.3,0.6,0.2,1.5-0.3,2l-2.1,2.1c-0.5,0.5-0.5,1.3,0,1.8l2.4,2.4c0.5,0.5,1.3,0.5,1.7,0l2.1-2.1c0.5-0.5,1.4-0.6,2-0.3l4.1,1.7
		c0.7,0.2,1.2,0.9,1.2,1.6v2.9c0,0.7,0.6,1.2,1.2,1.2h3.4c0.7,0,1.2-0.6,1.2-1.2v-2.9c0-0.7,0.5-1.4,1.2-1.6l4.1-1.7
		c0.6-0.3,1.5-0.2,2,0.3l2.1,2.1C321.8,97.9,322.6,97.9,323.1,97.4z M309,90.8c-5.5,0-9.9-4.4-9.9-9.9s4.4-9.9,9.9-9.9
		s9.9,4.4,9.9,9.9S314.5,90.8,309,90.8z"/>
	<path class="st1" d="M345.9,106.7l-0.6-2c-0.1-0.4-0.6-0.6-1-0.5l-1.7,0.5c-0.4,0.1-0.9-0.1-1.2-0.4l-1.8-2.1
		c-0.3-0.3-0.4-0.8-0.2-1.2l0.9-1.6c0.2-0.4,0.1-0.8-0.3-1l-1.8-1c-0.4-0.2-0.8-0.1-1,0.3l-0.9,1.6c-0.2,0.4-0.7,0.6-1.1,0.5
		l-2.7-0.3c-0.4,0-0.9-0.3-1-0.7l-0.5-1.7c-0.1-0.4-0.5-0.6-1-0.5l-2,0.6c-0.4,0.1-0.6,0.6-0.5,1l0.5,1.7c0.1,0.4-0.1,0.9-0.4,1.2
		l-2.1,1.8c-0.3,0.3-0.8,0.4-1.2,0.2l-1.6-0.9c-0.4-0.2-0.8-0.1-1,0.3l-1,1.8c-0.2,0.4-0.1,0.8,0.3,1l1.6,0.9
		c0.4,0.2,0.6,0.7,0.5,1.1l-0.3,2.7c0,0.4-0.3,0.9-0.7,1l-1.7,0.5c-0.4,0.1-0.6,0.6-0.5,1l0.6,2c0.1,0.4,0.6,0.6,1,0.5l1.7-0.5
		c0.4-0.1,0.9,0.1,1.1,0.4l1.8,2.1c0.3,0.3,0.4,0.8,0.2,1.2l-0.9,1.6c-0.2,0.4-0.1,0.8,0.3,1l1.8,1c0.4,0.2,0.8,0.1,1-0.3l0.9-1.6
		c0.2-0.4,0.7-0.6,1.1-0.5l2.7,0.3c0.4,0,0.9,0.3,1,0.7l0.5,1.7c0.1,0.4,0.6,0.6,1,0.5l2-0.6c0.4-0.1,0.6-0.6,0.5-1l-0.5-1.7
		c-0.1-0.4,0.1-0.9,0.4-1.2l2.1-1.8c0.3-0.3,0.8-0.4,1.2-0.2l1.6,0.9c0.4,0.2,0.8,0.1,1-0.3l1-1.8c0.2-0.4,0.1-0.8-0.3-1l-1.6-0.9
		c-0.4-0.2-0.6-0.7-0.5-1.1l0.3-2.8c0-0.4,0.3-0.9,0.7-1l1.7-0.5C345.8,107.6,346,107.1,345.9,106.7z M338.2,112.5
		c-1.6,3-5.3,4.1-8.3,2.5s-4.1-5.3-2.5-8.3s5.3-4.1,8.3-2.5C338.7,105.8,339.8,109.5,338.2,112.5z"/>
</g>
<g>
	<path class="st3" d="M632.3,197.8H577c-1,0-1.8-0.8-1.8-1.8s0.8-1.8,1.8-1.8h55.3c1,0,1.8,0.8,1.8,1.8
		C634,197.1,633.2,197.8,632.3,197.8z"/>
</g>
<g>
	<g>
		<g>
			<path class="st1" d="M496.1,125.7c-3.8,0-7.4,1.5-10,4.2c-4.6,4.6-5.5,11.7-2.2,17.2l0.2,0.4l-14.4,14.4c0,0-0.7,0.7-0.7,1.6
				c0,0.7,0.4,1.5,1.1,2.2c0.8,0.8,1.6,1.2,2.4,1.2c1,0,1.7-0.6,1.7-0.6l14.3-14.3l0.4,0.2c2.2,1.3,4.7,1.9,7.2,1.9
				c3.8,0,7.4-1.5,10-4.2c5.5-5.5,5.5-14.5,0-20.1C503.5,127.2,499.9,125.7,496.1,125.7z M496.1,149.9c-5.5,0-10-4.5-10-10
				s4.5-10,10-10l0,0c5.5,0,10,4.5,10,10S501.7,149.9,496.1,149.9z"/>
		</g>
	</g>
	<g>
		<g>
			<path class="st4" d="M490.9,142h10.3v-2.6h-10.3V142z"/>
		</g>
	</g>
</g>
<g>
	<g>
		<path class="st3" d="M158,231.3c-1,0-1.8-0.8-1.8-1.8v-6.9c0-1,0.8-1.8,1.8-1.8s1.8,0.8,1.8,1.8v6.9
			C159.7,230.5,158.9,231.3,158,231.3z"/>
	</g>
	<g>
		<path class="st3" d="M161.4,227.9h-6.9c-1,0-1.8-0.8-1.8-1.8s0.8-1.8,1.8-1.8h6.9c1,0,1.8,0.8,1.8,1.8S162.4,227.9,161.4,227.9z"
			/>
	</g>
</g>
<g>
	<g>
		<path class="st3" d="M375.4,50.9c-1,0-1.8-0.8-1.8-1.8v-6.9c0-1,0.8-1.8,1.8-1.8s1.8,0.8,1.8,1.8v6.9
			C377.2,50.1,376.4,50.9,375.4,50.9z"/>
	</g>
	<g>
		<path class="st3" d="M378.9,47.5H372c-1,0-1.8-0.8-1.8-1.8s0.8-1.8,1.8-1.8h6.9c1,0,1.8,0.8,1.8,1.8
			C380.6,46.7,379.8,47.5,378.9,47.5z"/>
	</g>
</g>
<g>
	<g>
		<path class="st3" d="M493.1,212.7c-0.2,0-0.3,0-0.5-0.1l-6.6-1.9c-0.9-0.3-1.5-1.2-1.2-2.2c0.3-0.9,1.2-1.5,2.2-1.2l6.6,1.9
			c0.9,0.3,1.5,1.2,1.2,2.2C494.6,212.2,493.9,212.7,493.1,212.7z"/>
	</g>
	<g>
		<path class="st3" d="M488.9,215.1c-0.2,0-0.3,0-0.5-0.1c-0.9-0.3-1.5-1.2-1.2-2.2l1.9-6.6c0.3-0.9,1.2-1.5,2.2-1.2
			c0.9,0.3,1.5,1.2,1.2,2.2l-1.9,6.6C490.3,214.6,489.6,215.1,488.9,215.1z"/>
	</g>
</g>
<g>
	<g>
		<g>
			
				<ellipse transform="matrix(0.7071 -0.7071 0.7071 0.7071 64.227 473.1998)" class="st1" cx="603.3" cy="159.1" rx="24.4" ry="24.4"/>
		</g>
	</g>
	<g>
		<g>
			<g>
				<circle class="st9" cx="603.3" cy="159.1" r="18.3"/>
			</g>
		</g>
		<g>
			<g>
				<g>
					<path class="st3" d="M603.3,178.1c-10.5,0-19-8.5-19-19s8.5-19,19-19s19,8.5,19,19C622.3,169.5,613.8,178.1,603.3,178.1z
						 M603.3,141.5c-9.7,0-17.6,7.9-17.6,17.6s7.9,17.6,17.6,17.6c9.7,0,17.6-7.9,17.6-17.6S613,141.5,603.3,141.5z"/>
				</g>
			</g>
		</g>
	</g>
	<g>
		<g>
			<g>
				<path class="st3" d="M603.3,159.8c-0.4,0-0.7-0.3-0.7-0.7v-9.3c0-0.4,0.3-0.7,0.7-0.7s0.7,0.3,0.7,0.7v9.3
					C604,159.4,603.7,159.8,603.3,159.8z"/>
			</g>
		</g>
		<g>
			<g>
				<path class="st3" d="M614.2,159.8h-10.9c-0.4,0-0.7-0.3-0.7-0.7s0.3-0.7,0.7-0.7h10.9c0.4,0,0.7,0.3,0.7,0.7
					C614.9,159.4,614.6,159.8,614.2,159.8z"/>
			</g>
		</g>
	</g>
	<g>
		<g>
			<g>
				<path class="st3" d="M604,142.8c0,0.4-0.3,0.7-0.7,0.7s-0.7-0.3-0.7-0.7s0.3-0.7,0.7-0.7S604,142.4,604,142.8z"/>
			</g>
		</g>
		<g>
			<g>
				<circle class="st3" cx="614.8" cy="147.6" r="0.7"/>
			</g>
		</g>
		<g>
			<g>
				<path class="st3" d="M619.5,159.8c-0.4,0-0.7-0.3-0.7-0.7s0.3-0.7,0.7-0.7s0.7,0.3,0.7,0.7S619.9,159.8,619.5,159.8z"/>
			</g>
		</g>
		<g>
			<g>
				<circle class="st3" cx="614.8" cy="170.5" r="0.7"/>
			</g>
		</g>
		<g>
			<g>
				<path class="st3" d="M602.5,175.3c0-0.4,0.3-0.7,0.7-0.7s0.7,0.3,0.7,0.7s-0.3,0.7-0.7,0.7C602.9,176,602.5,175.7,602.5,175.3z"
					/>
			</g>
		</g>
		<g>
			<g>
				<path class="st3" d="M591.3,170c0.3-0.3,0.7-0.3,1,0s0.3,0.7,0,1s-0.7,0.3-1,0C591,170.8,591,170.3,591.3,170z"/>
			</g>
		</g>
		<g>
			<g>
				<circle class="st3" cx="587" cy="159.1" r="0.7"/>
			</g>
		</g>
		<g>
			<g>
				<path class="st3" d="M592.3,147.1c0.3,0.3,0.3,0.7,0,1s-0.7,0.3-1,0s-0.3-0.7,0-1S592,146.8,592.3,147.1z"/>
			</g>
		</g>
	</g>
	<g>
		<g>
			<g>
				<path class="st3" d="M563.5,168.4h10.3c0.4,0,0.7,0.3,0.7,0.7s-0.3,0.7-0.7,0.7h-10.3c-0.4,0-0.7-0.3-0.7-0.7
					S563.1,168.4,563.5,168.4z"/>
			</g>
		</g>
		<g>
			<g>
				<path class="st3" d="M563.5,148.3h10.3c0.4,0,0.7,0.3,0.7,0.7s-0.3,0.7-0.7,0.7h-10.3c-0.4,0-0.7-0.3-0.7-0.7
					S563.1,148.3,563.5,148.3z"/>
			</g>
		</g>
		<g>
			<g>
				<path class="st3" d="M550.7,158.3h19.2c0.4,0,0.7,0.3,0.7,0.7s-0.3,0.7-0.7,0.7h-19.2c-0.4,0-0.7-0.3-0.7-0.7
					C550,158.7,550.3,158.3,550.7,158.3z"/>
			</g>
		</g>
	</g>
</g>
<g>
	<g>
		<rect x="542.8" y="250.9" class="st9" width="11.3" height="11.3"/>
		<path class="st3" d="M555,263.1h-13.1V250H555V263.1z M543.7,261.3h9.6v-9.6h-9.6V261.3z"/>
	</g>
	<g>
		<g>
			<g>
				<path class="st3" d="M528.4,253.3h10.3c0.4,0,0.7-0.3,0.7-0.7s-0.3-0.7-0.7-0.7h-10.3c-0.4,0-0.7,0.3-0.7,0.7
					S528,253.3,528.4,253.3z"/>
			</g>
		</g>
		<g>
			<g>
				<path class="st3" d="M524.6,261.1h13.9c0.5,0,1-0.3,1-0.7s-0.4-0.7-1-0.7h-13.9c-0.5,0-1,0.3-1,0.7S524,261.1,524.6,261.1z"/>
			</g>
		</g>
		<g>
			<g>
				<path class="st3" d="M519.5,257h19.2c0.4,0,0.7-0.3,0.7-0.7c0-0.4-0.3-0.7-0.7-0.7h-19.2c-0.4,0-0.7,0.3-0.7,0.7
					C518.8,256.7,519.1,257,519.5,257z"/>
			</g>
		</g>
	</g>
</g>
<g>
	<g>
		<g>
			<path class="st7" d="M93.8,319c-0.3-1.8-1.6-6.5-4.4-5c-4.6,2.4,0.9,11.5-4.6,13.2c-0.3-3.6-1.1-6.2-2.7-6
				c-3.4,0.3-2.5,8.2-2.5,10c-0.1,1.8-0.1,3.6-0.2,5.4c-4,0.7-3.2-9.7-5.6-11.1c-3.8-2.2-4.6,2.8-4.5,5.1c0.2,3.9,1.2,8.6,4.9,10.7
				c1.2,0.7,3.4,1.5,5,1.3c0,3.1,0.1,6.3,0.6,9.2h0.1l0,0l2.2,0.1l0,0c0,1,1.5,1,1.5,0c0-1.9,1.2-11.2,1.3-19.1
				c1.8,0.3,4-0.6,5.3-1.5C94,328.5,94.5,323.4,93.8,319z"/>
		</g>
		<g>
			<path class="st8" d="M82.8,353c-0.2,0-0.5-0.1-0.6-0.2c-0.2-0.1-0.4-0.4-0.5-0.6l-1.6-0.1h-0.6l-0.1-0.4
				c-0.4-2.5-0.6-5.4-0.6-8.9c-1.8,0-3.8-0.9-4.8-1.4c-3.9-2.2-5-7.2-5.1-11c-0.1-1.5,0.3-4.7,2-5.7c0.9-0.5,1.9-0.4,3.1,0.3
				c1.2,0.7,1.6,2.8,2.1,5.3c0.7,3.4,1.3,5.8,2.9,5.8v-0.8c0.1-1.4,0.1-2.8,0.2-4.2c0-0.3,0-0.7,0-1.2c-0.1-3.1-0.3-8.9,3-9.2
				c0.5,0,1,0.1,1.4,0.4c0.9,0.8,1.5,2.5,1.8,5.4c2.1-0.9,2-3.3,1.8-6c-0.1-2.8-0.3-5.6,2.2-6.9c0.8-0.4,1.5-0.4,2.2-0.1
				c2,1,2.7,5,2.8,5.4l0,0c0.5,3.3,0.8,9.4-3.7,12.7c-1.3,0.9-3.4,1.7-5.2,1.6c-0.1,5.1-0.6,10.8-1,14.6c-0.2,1.9-0.3,3.4-0.3,4
				c0,0.4-0.2,0.8-0.6,1C83.2,353,83,353,82.8,353z M80.1,351.3l2.4,0.1v0.4c0,0.2,0.1,0.3,0.1,0.3c0.1,0.1,0.3,0.1,0.4,0
				s0.1-0.1,0.1-0.3c0-0.6,0.1-2.1,0.3-4.1c0.4-3.9,0.9-9.8,1-15v-0.5l0.5,0.1c1.6,0.2,3.8-0.6,5-1.4c4.1-3,3.9-8.7,3.4-11.9l0,0
				c-0.2-1.4-1-4.1-2.3-4.8c-0.4-0.2-0.9-0.2-1.5,0.1c-2,1-1.8,3.5-1.7,6.1c0.1,2.9,0.3,6.1-2.9,7.1l-0.5,0.1v-0.5
				c-0.3-3.6-1-4.9-1.5-5.4c-0.2-0.2-0.5-0.3-0.7-0.2c-2.5,0.2-2.3,5.7-2.2,8.3c0,0.5,0,1,0,1.3c0,1.4-0.1,2.8-0.2,4.2l-0.1,1.5
				l-0.3,0.1c-2.7,0.5-3.5-3.2-4.2-6.4c-0.4-2.1-0.9-4.2-1.7-4.8c-0.9-0.5-1.7-0.6-2.3-0.3c-1.3,0.8-1.6,3.5-1.6,5
				c0.2,3.6,1.1,8.3,4.7,10.3c1.2,0.7,3.3,1.4,4.8,1.3h0.5v0.5C79.5,346,79.7,348.8,80.1,351.3z"/>
		</g>
	</g>
	<g>
		<g>
			<path class="st8" d="M70.9,330.4c0.4,0.1,0.9,0.1,1.3,0.2c0.5,0.1,0.5-0.7,0-0.7c-0.4-0.1-0.9-0.1-1.3-0.2
				C70.4,329.6,70.4,330.4,70.9,330.4L70.9,330.4z"/>
		</g>
	</g>
	<g>
		<g>
			<path class="st8" d="M72.8,324.6c0,0.2,0,0.4,0,0.7c0,0.5,0.7,0.5,0.7,0c0-0.2,0-0.4,0-0.7C73.6,324.1,72.8,324.1,72.8,324.6
				L72.8,324.6z"/>
		</g>
	</g>
	<g>
		<g>
			<path class="st8" d="M75.4,331.4c0.3-0.2,0.6-0.4,1-0.5c0.4-0.2,0-0.9-0.4-0.6c-0.3,0.2-0.6,0.4-1,0.5
				C74.6,331,75,331.6,75.4,331.4L75.4,331.4z"/>
		</g>
	</g>
	<g>
		<g>
			<path class="st8" d="M71.6,340c0.4-0.3,0.8-0.5,1.2-0.8c0.4-0.3,0-0.9-0.4-0.6s-0.8,0.5-1.2,0.8C70.8,339.6,71.2,340.3,71.6,340
				L71.6,340z"/>
		</g>
	</g>
	<g>
		<g>
			<path class="st8" d="M68.8,333.6c0.3,0.1,0.6,0.2,0.8,0.3c0.4,0.2,0.6-0.5,0.2-0.7c-0.3-0.1-0.6-0.2-0.8-0.3
				C68.5,332.7,68.3,333.4,68.8,333.6L68.8,333.6z"/>
		</g>
	</g>
	<g>
		<g>
			<path class="st8" d="M74.2,337c0.2,0,0.3,0.1,0.4,0.2c0.3,0.4,0.8-0.2,0.5-0.5c-0.2-0.3-0.6-0.4-0.9-0.4
				C73.7,336.3,73.7,337,74.2,337L74.2,337z"/>
		</g>
	</g>
	<g>
		<g>
			<path class="st8" d="M75.8,340.6c-0.1,0.5,0,1,0.2,1.5c0.2,0.4,0.8,0.1,0.6-0.4c-0.1-0.3-0.2-0.6-0.1-0.9
				C76.6,340.3,75.9,340.1,75.8,340.6L75.8,340.6z"/>
		</g>
	</g>
	<g>
		<g>
			<path class="st8" d="M79.7,340.7c0.2,0.1,0.4,0.1,0.7,0.2c0.5,0.1,0.7-0.6,0.2-0.7c-0.2-0.1-0.4-0.1-0.7-0.2
				C79.5,339.9,79.3,340.6,79.7,340.7L79.7,340.7z"/>
		</g>
	</g>
	<g>
		<g>
			<path class="st8" d="M82.1,333.4c0,0.4,0.1,0.8,0.4,1.1c0.4,0.3,0.9-0.2,0.5-0.5c-0.2-0.2-0.3-0.3-0.2-0.6
				C82.9,332.9,82.2,332.9,82.1,333.4L82.1,333.4z"/>
		</g>
	</g>
	<g>
		<g>
			<path class="st8" d="M81.2,328c-0.2,0.3-0.3,0.6-0.2,1c0.1,0.5,0.8,0.3,0.7-0.2c0-0.2,0-0.3,0.1-0.4
				C82.1,328,81.4,327.6,81.2,328L81.2,328z"/>
		</g>
	</g>
	<g>
		<g>
			<path class="st8" d="M85.3,330.2c0,0.2,0,0.4,0,0.7c0,0.5,0.7,0.5,0.7,0c0-0.2,0-0.4,0-0.7C86,329.7,85.3,329.7,85.3,330.2
				L85.3,330.2z"/>
		</g>
	</g>
	<g>
		<g>
			<path class="st8" d="M78.3,329c0.2,0.1,0.3,0.2,0.5,0.3c0.4,0.3,0.8-0.4,0.4-0.6c-0.2-0.1-0.3-0.2-0.5-0.3
				C78.3,328.1,77.9,328.8,78.3,329L78.3,329z"/>
		</g>
	</g>
	<g>
		<g>
			<path class="st8" d="M79.6,322.8c0.1,0.2,0.2,0.3,0.2,0.6c0,0.5,0.8,0.5,0.7,0c0-0.4-0.2-0.8-0.5-1.1
				C79.8,321.9,79.3,322.5,79.6,322.8L79.6,322.8z"/>
		</g>
	</g>
	<g>
		<g>
			<path class="st8" d="M81.4,320.6c0,0.3,0,0.7,0,1c0,0.5,0.7,0.5,0.7,0c0-0.3,0-0.7,0-1C82.2,320.1,81.4,320.1,81.4,320.6
				L81.4,320.6z"/>
		</g>
	</g>
	<g>
		<g>
			<path class="st8" d="M86.1,325c0.1,0.1,0.2,0.2,0.3,0.3c0.3,0.3,0.9-0.2,0.5-0.5c-0.1-0.1-0.2-0.2-0.3-0.3
				C86.3,324.1,85.7,324.6,86.1,325L86.1,325z"/>
		</g>
	</g>
	<g>
		<g>
			<path class="st8" d="M86.8,320.5c0.3,0,0.7,0,1,0.1c0.5,0,0.5-0.7,0-0.7c-0.3,0-0.7,0-1-0.1C86.3,319.7,86.3,320.5,86.8,320.5
				L86.8,320.5z"/>
		</g>
	</g>
	<g>
		<g>
			<path class="st8" d="M87.9,314.5c0.2,0.2,0.4,0.4,0.7,0.7c0.3,0.3,0.9-0.2,0.5-0.5c-0.2-0.2-0.4-0.4-0.7-0.7
				C88.1,313.7,87.5,314.2,87.9,314.5L87.9,314.5z"/>
		</g>
	</g>
	<g>
		<g>
			<path class="st8" d="M90.7,312.6c0,0.4,0,0.8,0,1.2c0,0.5,0.7,0.5,0.7,0c0-0.4,0-0.8,0-1.2C91.5,312.1,90.7,312.1,90.7,312.6
				L90.7,312.6z"/>
		</g>
	</g>
	<g>
		<g>
			<path class="st8" d="M92.1,319.6c0.1-0.2,0.2-0.3,0.3-0.5c0.3-0.4-0.4-0.8-0.6-0.4c-0.1,0.2-0.2,0.3-0.3,0.5
				C91.2,319.6,91.8,320,92.1,319.6L92.1,319.6z"/>
		</g>
	</g>
	<g>
		<g>
			<path class="st8" d="M89.6,326.9c0.3-0.1,0.6-0.2,0.8-0.3c0.4-0.2,0.3-0.9-0.2-0.7c-0.3,0.1-0.6,0.2-0.8,0.3
				C88.9,326.4,89.1,327.1,89.6,326.9L89.6,326.9z"/>
		</g>
	</g>
	<g>
		<g>
			<path class="st8" d="M92.9,325.9c0.3-0.1,0.6-0.1,0.8-0.2c0.5-0.1,0.3-0.8-0.2-0.7c-0.3,0.1-0.6,0.1-0.8,0.2
				C92.2,325.3,92.4,326,92.9,325.9L92.9,325.9z"/>
		</g>
	</g>
	<g>
		<g>
			<path class="st8" d="M90.7,329.4c0,0.1,0,0.1,0,0.2c0,0.5,0.7,0.5,0.7,0c0-0.1,0-0.1,0-0.2C91.5,328.9,90.7,328.9,90.7,329.4
				L90.7,329.4z"/>
		</g>
	</g>
	<g>
		<g>
			<path class="st8" d="M84.3,340.8c0.2-0.1,0.3-0.2,0.5-0.3c0.4-0.3,0-0.9-0.4-0.6c-0.2,0.1-0.3,0.2-0.5,0.3
				C83.6,340.4,83.9,341.1,84.3,340.8L84.3,340.8z"/>
		</g>
	</g>
	<g>
		<g>
			<path class="st8" d="M83.9,343.6c0.3-0.3,0.6-0.5,1-0.5c0.5-0.1,0.3-0.8-0.2-0.7c-0.5,0.1-1,0.4-1.3,0.7
				C83,343.4,83.5,343.9,83.9,343.6L83.9,343.6z"/>
		</g>
	</g>
	<g>
		<g>
			<path class="st8" d="M80.8,344c0.1,0.1,0.1,0.2,0.2,0.3c0.2,0.4,0.9,0.1,0.6-0.4c-0.1-0.1-0.1-0.2-0.2-0.3
				C81.2,343.2,80.6,343.6,80.8,344L80.8,344z"/>
		</g>
	</g>
	<g>
		<g>
			<path class="st8" d="M78,344.8c0.4,0.2,0.8,0.3,1.3,0.2c0.5-0.1,0.3-0.8-0.2-0.7c-0.3,0.1-0.5,0-0.7-0.1
				C77.9,343.9,77.5,344.6,78,344.8L78,344.8z"/>
		</g>
	</g>
	<g>
		<g>
			<path class="st8" d="M84.1,337.7c0.5-0.1,1-0.1,1.5-0.2s0.5-0.8,0-0.7c-0.5,0.1-1,0.1-1.5,0.2C83.7,337,83.7,337.8,84.1,337.7
				L84.1,337.7z"/>
		</g>
	</g>
</g>
<g>
	<path class="st3" d="M192.2,139.4"/>
	<g>
		<path class="st3" d="M192.2,142c3.4,0,3.4-5.3,0-5.3S188.8,142,192.2,142L192.2,142z"/>
	</g>
</g>
<g>
	<path class="st3" d="M559.2,208"/>
	<g>
		<path class="st3" d="M559.2,210.7c3.4,0,3.4-5.3,0-5.3C555.9,205.4,555.8,210.7,559.2,210.7L559.2,210.7z"/>
	</g>
</g>
<g>
	<path class="st3" d="M628.2,112.9"/>
	<g>
		<path class="st3" d="M628.2,115.5c3.4,0,3.4-5.3,0-5.3C624.8,110.3,624.8,115.5,628.2,115.5L628.2,115.5z"/>
	</g>
</g>
<g>
	<g>
		<rect x="665.6" y="249.1" class="st1" width="36.6" height="36.2"/>
		<rect x="679.3" y="249.1" class="st4" width="9.3" height="18.1"/>
	</g>
	<path class="st9" d="M679.6,275.6c0-2.4,1.9-4.3,4.3-4.3c2.4,0,4.3,1.9,4.3,4.3s-1.9,4.3-4.3,4.3S679.6,278,679.6,275.6z"/>
</g>
<g>
	<rect x="665.6" y="287.2" class="st1" width="36.6" height="36.2"/>
	<rect x="679.3" y="287.2" class="st4" width="9.3" height="18.1"/>
</g>
<path class="st9" d="M679.6,313.8c0-2.4,1.9-4.3,4.3-4.3c2.4,0,4.3,1.9,4.3,4.3s-1.9,4.3-4.3,4.3C681.5,318,679.6,316.1,679.6,313.8
	z"/>
<line class="st0" x1="656.4" y1="336.6" x2="656.4" y2="277.8"/>
<line class="st0" x1="651" y1="337.3" x2="625.5" y2="282.1"/>
<g>
	<line class="st0" x1="600.9" y1="319.6" x2="612.4" y2="308.1"/>
	<line class="st0" x1="606.7" y1="313.9" x2="620.6" y2="327.8"/>
</g>
<path class="st2" d="M632.4,337c0.9,0.9,0.9,2.4,0,3.3l-2.7,2.7c-0.9,0.9-2.4,0.9-3.3,0l-15.9-18.9c-0.9-0.9-0.9-2.4,0-3.3l2.7-2.7
	c0.9-0.9,2.4-0.9,3.3,0L632.4,337z"/>
<path class="st13" d="M644.4,323l-21-6.2c-1.3,0-2.3,1-2.3,2.3v24.3c0,1.3,1,2.3,2.3,2.3h22.5c1.3,0,7.9-0.8,7.9-2.1L644.4,323z"/>
<path class="st2" d="M611.1,345.7l-4-12.2h-32.2H572V304c0-0.1-0.1-0.2-0.2-0.2l-17.1,9.5c-0.1,0-0.2,0.1-0.2,0.2v44.3
	c0,0.1,0.1,0.2,0.2,0.2h6.3l0,0h11h20.6h34.9h38.7c0,0,5.2,0,5.2-3.4c0-4.1,0-12.1,0-12.1c0-7.1-12.2-8.9-19.4-8.9
	c-8.6,0-16,5-19.6,12.2L611.1,345.7z"/>
<line class="st0" x1="572.3" y1="281" x2="572.3" y2="333.5"/>
<polyline class="st0" points="711.4,324.2 656.4,324.2 656.4,301.6 "/>
<path class="st2" d="M668.1,355.4c0-8.8-7.2-16-16-16s-16,7.2-16,16s7.2,16,16,16C660.9,371.4,668.1,364.3,668.1,355.4z"/>
<path class="st2" d="M592.5,355.4c0-8.8-7.2-16-16-16s-16,7.2-16,16s7.2,16,16,16S592.5,364.3,592.5,355.4z"/>
<path class="st2" d="M623.9,276.8h-55.1c-0.8,0-1.5,0.7-1.5,1.5v5.1c0,0.8,0.7,1.5,1.5,1.5h65C637.1,285,631.6,276.8,623.9,276.8z"
	/>
<path class="st2" d="M478.4,68.1c0-14.7-11.9-26.6-26.6-26.6c-5.7,0-10.9,1.8-15.2,4.8l-57.3,36c-6.3,3.4-10.6,10.1-10.6,17.8
	c0,11.2,9.1,20.3,20.3,20.3c3.3,0,6.3-0.8,9.1-2.2l63.1-25.3l0,0C471.2,89.2,478.4,79.5,478.4,68.1z"/>
<circle class="st1" cx="454.1" cy="66.8" r="12.1"/>
<circle class="st1" cx="326.8" cy="160.4" r="6.1"/>
<circle class="st1" cx="408.8" cy="188.3" r="8.2"/>
<circle class="st1" cx="389.4" cy="101.2" r="9.5"/>
<rect x="324.3" y="351.5" class="st2" width="196.6" height="22"/>
<polygon class="st1" points="521.8,352.8 323.5,352.8 319.4,338.7 525.3,338.7 "/>
<g>
	<circle class="st1" cx="652.1" cy="355.4" r="7.4"/>
	<circle class="st5" cx="652.1" cy="355.4" r="4.2"/>
</g>
<g>
	<circle class="st1" cx="576.5" cy="355.4" r="7.4"/>
	<circle class="st5" cx="576.5" cy="355.4" r="4.2"/>
</g>
<g>
	<line class="st14" x1="831.4" y1="194.9" x2="872.3" y2="194.9"/>
	<line class="st14" x1="812.9" y1="194.9" x2="819.1" y2="194.9"/>
</g>
<circle class="st9" cx="842.6" cy="471.2" r="8.4"/>
<rect x="774" y="405.3" class="st1" width="10.4" height="26.7"/>
<rect x="785.9" y="365.7" class="st4" width="10.4" height="66.4"/>
<rect x="811.1" y="324.6" class="st1" width="10.4" height="107.5"/>
<rect x="823" y="365.7" class="st4" width="10.4" height="66.4"/>
<rect x="848.8" y="350.8" class="st1" width="10.4" height="81.2"/>
<rect x="860.6" y="365.7" class="st4" width="10.4" height="66.4"/>
<rect x="888.9" y="391.4" class="st1" width="10.4" height="40.6"/>
<rect x="900.8" y="336.5" class="st4" width="10.4" height="95.6"/>
<circle class="st15" cx="805.1" cy="259.2" r="25.9"/>
<path class="st16" d="M805.1,233.3c14.3,0,25.9,11.6,25.9,25.9c0,14.3-11.6,25.9-25.9,25.9"/>
<g>
	<path class="st12" d="M798.1,260.4l0.5-4.8h5.2v1.4H800l-0.3,2.3c0.4-0.3,0.9-0.4,1.5-0.4c0.9,0,1.6,0.3,2.1,0.9s0.8,1.4,0.8,2.4
		s-0.3,1.8-0.8,2.3c-0.6,0.6-1.3,0.9-2.3,0.9c-0.9,0-1.6-0.2-2.2-0.7c-0.6-0.5-0.9-1.2-0.9-2h1.6c0.1,0.5,0.2,0.8,0.5,1.1
		c0.3,0.2,0.6,0.4,1.1,0.4s0.9-0.2,1.2-0.5c0.3-0.4,0.4-0.8,0.4-1.4s-0.2-1-0.5-1.4s-0.7-0.5-1.3-0.5c-0.3,0-0.5,0-0.7,0.1
		s-0.4,0.2-0.7,0.5L798.1,260.4z"/>
	<path class="st12" d="M811.7,261.1c0,1.4-0.3,2.4-0.8,3.1s-1.3,1.1-2.4,1.1c-1,0-1.8-0.3-2.3-1s-0.8-1.7-0.8-3v-1.7
		c0-1.4,0.3-2.4,0.8-3.1c0.5-0.7,1.3-1,2.4-1c1.1,0,1.8,0.3,2.4,1c0.5,0.7,0.8,1.7,0.8,3v1.6H811.7z M810.1,259.3
		c0-0.9-0.1-1.6-0.4-2c-0.2-0.4-0.6-0.6-1.2-0.6c-0.5,0-0.9,0.2-1.2,0.6c-0.2,0.4-0.4,1-0.4,1.9v2.2c0,0.9,0.1,1.6,0.4,2
		c0.3,0.4,0.6,0.7,1.2,0.7c0.5,0,0.9-0.2,1.1-0.6s0.4-1,0.4-1.9v-2.3H810.1z"/>
</g>
<path class="st17" d="M847.8,272.9c0,0,9.3-7.6,25-10.6s34.2-20.4,36.7-34.6"/>
<circle class="st8" cx="848" cy="272.9" r="1.6"/>
<circle class="st3" cx="848.5" cy="260.1" r="1.6"/>
<circle class="st3" cx="866.5" cy="251.5" r="1.6"/>
<circle class="st3" cx="883" cy="243.8" r="1.6"/>
<circle class="st3" cx="906.3" cy="265.1" r="1.6"/>
<circle class="st8" cx="891.7" cy="253.1" r="1.6"/>
<circle class="st8" cx="903.7" cy="240.6" r="1.6"/>
<circle class="st8" cx="909.5" cy="228.2" r="1.6"/>
<path class="st0" d="M848,260.3c0,0,5.7-6.4,8.3-7.2c2.7-0.8,8.5-1.4,10.2-1.6c1.7-0.2,6.2-2.2,8.4-3.7s6.8-5.3,12.1-3.9
	c5.3,1.4,14.4,9.7,19.3,21.2"/>
<path class="st1" d="M713.8,457.7v-16.6c0-3.4-2.7-6.1-6.1-6.1h-18.1v22.7H713.8z"/>
<path class="st1" d="M687.1,457.7V435H669c-3.4,0-6.1,2.7-6.1,6.1v16.6H687.1z"/>
<path class="st1" d="M689.6,460.1v23h18.1c3.4,0,6.1-2.7,6.1-6.1v-16.9H689.6z"/>
<path class="st1" d="M687.1,460.1h-24.2V477c0,3.4,2.7,6.1,6.1,6.1h18.1L687.1,460.1L687.1,460.1z"/>
<polygon class="st9" points="681.8,445 676.3,445 676.3,439.5 673.7,439.5 673.7,445 668.2,445 668.2,447.6 673.7,447.6 
	673.7,453.1 676.3,453.1 676.3,447.6 681.8,447.6 "/>
<polygon class="st9" points="678.8,465.9 675,469.8 671.1,465.9 669.3,467.8 673.1,471.6 669.3,475.5 671.1,477.3 675,473.5 
	678.8,477.3 680.7,475.5 676.8,471.6 680.7,467.8 "/>
<rect x="697.2" y="445" class="st9" width="9" height="2.6"/>
<g>
	<rect x="695.2" y="467.8" class="st9" width="12.9" height="2.6"/>
	<rect x="695.2" y="472.9" class="st9" width="12.9" height="2.6"/>
</g>
<path class="st13" d="M620.1,417.5"/>
<g>
	<g>
		<g>
			<path class="st3" d="M226,130.4v10.3c0,0.4-0.3,0.7-0.7,0.7s-0.7-0.3-0.7-0.7v-10.3c0-0.4,0.3-0.7,0.7-0.7S226,130,226,130.4z"/>
		</g>
	</g>
	<g>
		<g>
			<path class="st3" d="M246.1,130.4v10.3c0,0.4-0.3,0.7-0.7,0.7s-0.7-0.3-0.7-0.7v-10.3c0-0.4,0.3-0.7,0.7-0.7
				S246.1,130,246.1,130.4z"/>
		</g>
	</g>
	<g>
		<g>
			<path class="st3" d="M236,117.6v19.2c0,0.4-0.3,0.7-0.7,0.7s-0.7-0.3-0.7-0.7v-19.2c0-0.4,0.3-0.7,0.7-0.7
				C235.7,116.9,236,117.2,236,117.6z"/>
		</g>
	</g>
</g>
<path class="st18" d="M859.9,96.9h19.3h1.4c12.2,0,22.1-6.5,22.1-18.7s-9.9-22.1-22.1-22.1c0,0,0,0-0.1,0c0-0.5,0.1-0.9,0.1-1.4
	c0-17.3-14-31.3-31.3-31.3c-10.4,0-19.6,5.1-25.3,12.9c-2.7-1.2-5.6-1.9-8.7-1.9c-11.4,0-20.6,8.9-21.2,20.1
	c-7.1,4.4-11.8,12.2-11.8,21.1c0,13.7,11.1,21.4,24.8,21.4h16.7"/>
<g>
	<circle class="st19" cx="827.2" cy="55.7" r="7.3"/>
	<circle class="st19" cx="865.1" cy="71.5" r="7.3"/>
	<circle class="st19" cx="879.7" cy="116.5" r="7.3"/>
	<circle class="st19" cx="806.8" cy="115" r="7.3"/>
	<circle class="st19" cx="842.7" cy="100.3" r="10.1"/>
	<line class="st19" x1="859.8" y1="76.6" x2="848.7" y2="92.3"/>
	<line class="st19" x1="829.5" y1="62.7" x2="839.5" y2="90.8"/>
	<line class="st19" x1="832.6" y1="104.2" x2="813.4" y2="112"/>
	<line class="st19" x1="852.7" y1="100.3" x2="872.4" y2="112"/>
</g>
<line class="st0" x1="248.3" y1="373.5" x2="747.4" y2="373.5"/>
<line class="st0" x1="50.4" y1="373.5" x2="574.7" y2="373.5"/>
<line class="st0" x1="638.2" y1="380" x2="747.4" y2="380"/>
<line class="st0" x1="595.3" y1="380" x2="632" y2="380"/>
<line class="st0" x1="569.5" y1="380" x2="589.7" y2="380"/>
<line class="st0" x1="555.7" y1="380" x2="564.3" y2="380"/>
<line class="st0" x1="21.8" y1="373.5" x2="44" y2="373.5"/>
<line class="st0" x1="4.7" y1="373.5" x2="17.2" y2="373.5"/>
<circle class="st5" cx="454.1" cy="66.8" r="7.2"/>
<circle class="st5" cx="408.8" cy="188.3" r="4.8"/>
<circle class="st5" cx="326.8" cy="160.4" r="3.6"/>
<circle class="st5" cx="389.4" cy="101.2" r="5"/>
<path class="st0" d="M720.2,481.6c0,4.5-3.8,8.2-8.5,8.2h-46.8c-4.7,0-8.5-3.7-8.5-8.2v-65.5c0-4.5,3.8-8.2,8.5-8.2h46.8
	c4.7,0,8.5,3.7,8.5,8.2V481.6z"/>
<path class="st13" d="M656.4,428.8v-21.4c0-1.1,1-2.1,2.3-2.1H718c1.2,0,2.3,0.9,2.3,2.1v21.4H656.4z"/>
<path class="st9" d="M715.4,420.9c0,1.2-1,2.3-2.2,2.3h-49.6c-1.2,0-2.2-1-2.2-2.3V413c0-1.2,1-2.3,2.2-2.3h49.6
	c1.2,0,2.2,1,2.2,2.3V420.9z"/>
<rect x="307.6" y="218.3" class="st1" width="35.2" height="34.8"/>
<rect x="320.7" y="218.3" class="st3" width="8.9" height="17.4"/>
<polygon class="st0" points="92.2,373.5 71.4,373.5 68.1,356.6 95.6,356.6 "/>
<path class="st13" d="M98.7,354.9c0,0.9-0.8,1.7-1.7,1.7H66.7c-0.9,0-1.7-0.8-1.7-1.7v-4c0-0.9,0.8-1.7,1.7-1.7H97
	c0.9,0,1.7,0.8,1.7,1.7V354.9z"/>
</svg>
