<svg id="Layer_1" data-name="Layer 1" xmlns="http://www.w3.org/2000/svg" viewBox="0 0 841.89 595.28"><defs><style>.cls-1{fill:#425d92;}.cls-2{fill:#214081;}.cls-3{fill:#fff;}.cls-4{fill:#7cc46a;}.cls-5{fill:#50a94f;}.cls-6{fill:#231f20;}.cls-7{fill:none;}</style></defs><title>SCH Illustration Revised</title><path class="cls-1" d="M525.65,231.21a98.73,98.73,0,0,1-12-1l.1-1a97.12,97.12,0,0,0,11.9,1Zm12-.6-.1-1a89.66,89.66,0,0,0,11.71-2.2l.29,1A80.38,80.38,0,0,1,537.64,230.61Zm-35.89-2.7c-3.8-.9-7.71-2.1-11.6-3.4l.29-.9c3.9,1.3,7.71,2.4,11.5,3.3Zm59.09-3.5-.4-.9a81.17,81.17,0,0,0,10.5-5.6l.5.8A67.39,67.39,0,0,1,560.84,224.41Zm-81.9-4.1c-3.6-1.5-7.29-3.2-10.9-5.1l.4-.9c3.6,1.8,7.3,3.5,10.9,5Zm102.1-8.9-.7-.7a50,50,0,0,0,8-8.8l.8.6A54.33,54.33,0,0,1,581,211.41Zm-123.6-1.9c-3.4-1.9-6.79-4-10.29-6.2l.5-.8c3.39,2.2,6.89,4.3,10.2,6.2ZM437,196.91c-3.5-2.1-7-4-10.5-5.8l.5-.9c3.5,1.8,7,3.7,10.5,5.8Zm-147.5-3.1-.5-.8a116.71,116.71,0,0,1,10.5-5.9l.4.9A95.4,95.4,0,0,0,289.54,193.81ZM415.75,186c-3.71-1.6-7.5-3-11.21-4.3l.3-.9c3.7,1.3,7.5,2.7,11.2,4.3Zm-104.91-2.9-.4-.9c3.71-1.4,7.6-2.7,11.4-3.8l.3,1C318.44,180.41,314.54,181.71,310.84,183.11Zm82.31-4.7c-3.9-1-7.8-1.8-11.71-2.5l.21-1c3.89.6,7.89,1.5,11.79,2.5Zm-59.31-1.9-.2-1a117.71,117.71,0,0,1,11.9-1.8l.1,1C341.75,175.21,337.75,175.81,333.84,176.51Zm35.7-2c-4-.3-8-.4-11.89-.4v-1c4,0,8,.1,12,.4Z"/><rect class="cls-2" x="532.15" y="359.61" width="6.6" height="3"/><path class="cls-2" d="M264,368.71v17.9a6,6,0,0,1-6,6H247a6,6,0,0,1-6-6v-57a9,9,0,0,0-18,0v22a6,6,0,0,1-6,6H100.54v3H217a9,9,0,0,0,9-9v-22a6,6,0,0,1,12,0v57a9,9,0,0,0,9,9h11a9,9,0,0,0,9-9v-17.9a6,6,0,0,1,6-6h36.5v-3H273a9,9,0,0,0-9,9"/><rect class="cls-2" x="334.04" y="359.61" width="15.5" height="3"/><rect class="cls-2" x="318.54" y="359.61" width="6.6" height="3"/><path class="cls-2" d="M316.15,358.31a.69.69,0,0,1,.7.7v4.1a.68.68,0,0,1-.7.7H312a.69.69,0,0,1-.7-.7V359a.68.68,0,0,1,.7-.7h4.11m0-2H312a2.69,2.69,0,0,0-2.7,2.7v4.1a2.69,2.69,0,0,0,2.7,2.7h4.11a2.69,2.69,0,0,0,2.7-2.7V359a2.69,2.69,0,0,0-2.7-2.7"/><path class="cls-2" d="M331.65,358.31a.69.69,0,0,1,.7.7v4.1a.68.68,0,0,1-.7.7h-4.11a.69.69,0,0,1-.7-.7V359a.68.68,0,0,1,.7-.7h4.11m0-2h-4.11a2.69,2.69,0,0,0-2.7,2.7v4.1a2.69,2.69,0,0,0,2.7,2.7h4.11a2.69,2.69,0,0,0,2.7-2.7V359a2.69,2.69,0,0,0-2.7-2.7"/><polygon class="cls-2" points="347.05 366.21 351.94 361.41 347.05 356.51 347.05 366.21"/><rect class="cls-2" x="507.75" y="359.61" width="15.5" height="3"/><path class="cls-2" d="M545.25,358.31a.68.68,0,0,1,.7.7v4.1a.68.68,0,0,1-.7.7h-4.1a.68.68,0,0,1-.7-.7V359a.68.68,0,0,1,.7-.7h4.1m0-2h-4.1a2.69,2.69,0,0,0-2.7,2.7v4.1a2.69,2.69,0,0,0,2.7,2.7h4.1a2.69,2.69,0,0,0,2.7-2.7V359a2.63,2.63,0,0,0-2.7-2.7"/><path class="cls-2" d="M529.75,358.31a.68.68,0,0,1,.7.7v4.1a.68.68,0,0,1-.7.7h-4.1a.69.69,0,0,1-.71-.7V359a.69.69,0,0,1,.71-.7h4.1m0-2h-4.1a2.7,2.7,0,0,0-2.71,2.7v4.1a2.7,2.7,0,0,0,2.71,2.7h4.1a2.69,2.69,0,0,0,2.7-2.7V359a2.63,2.63,0,0,0-2.7-2.7"/><path class="cls-2" d="M644.54,355.51a6,6,0,0,1-6-6v-28.9a9,9,0,0,0-9-9h-11a9,9,0,0,0-9,9v84a6,6,0,0,1-12,0v-36a9,9,0,0,0-9-9H548v3h40.5a6,6,0,0,1,6,6v36a9,9,0,0,0,18,0v-84a6,6,0,0,1,6-6h11a6,6,0,0,1,6,6v28.9a9,9,0,0,0,9,9H731v-3Z"/><polygon class="cls-2" points="507.75 365.91 502.94 361.11 507.75 356.31 507.75 365.91"/><polygon class="cls-3" points="203.84 336.61 138.15 336.61 130.44 336.61 130.44 340.81 130.44 346.01 138.15 346.01 138.15 340.81 203.84 340.81 203.84 346.01 211.65 346.01 211.65 340.81 211.65 336.61 203.84 336.61"/><path class="cls-1" d="M212.15,346.51h-8.7v-5.3h-64.7v5.3h-8.7V336h82.2v10.5Zm-7.8-1H211V337H130.85v8.5h6.69v-5.3h66.7v5.3Z"/><rect class="cls-3" x="132.24" y="316.31" width="18.9" height="18.6"/><path class="cls-1" d="M151.54,335.41h-19.9v-19.6h19.9Zm-18.8-1h17.9v-17.6h-17.9Z"/><rect class="cls-2" x="139.24" y="316.31" width="4.8" height="9.3"/><path class="cls-2" d="M139.45,330a2.2,2.2,0,1,1,2.19,2.2,2.22,2.22,0,0,1-2.19-2.2"/><rect class="cls-3" x="151.94" y="316.31" width="18.9" height="18.6"/><path class="cls-1" d="M171.35,335.41h-19.9v-19.6h19.9Zm-18.91-1h17.9v-17.6h-17.9Z"/><rect class="cls-2" x="159.04" y="316.31" width="4.8" height="9.3"/><path class="cls-2" d="M159.24,330a2.2,2.2,0,1,1,2.2,2.2,2.22,2.22,0,0,1-2.2-2.2"/><rect class="cls-3" x="151.94" y="296.81" width="18.9" height="18.6"/><path class="cls-1" d="M171.35,315.91h-19.9v-19.6h19.9Zm-18.91-1h17.9v-17.6h-17.9Z"/><rect class="cls-2" x="159.04" y="296.81" width="4.8" height="9.3"/><path class="cls-2" d="M159.24,310.51a2.2,2.2,0,1,1,2.2,2.2,2.22,2.22,0,0,1-2.2-2.2"/><rect class="cls-3" x="171.74" y="316.31" width="18.9" height="18.6"/><path class="cls-1" d="M191.15,335.41h-19.9v-19.6h19.9Zm-18.91-1h17.9v-17.6h-17.9Z"/><rect class="cls-2" x="178.74" y="316.31" width="4.8" height="9.3"/><path class="cls-2" d="M178.94,330a2.2,2.2,0,1,1,2.2,2.2,2.22,2.22,0,0,1-2.2-2.2"/><rect class="cls-3" x="171.74" y="296.81" width="18.9" height="18.6"/><path class="cls-1" d="M191.15,315.91h-19.9v-19.6h19.9Zm-18.91-1h17.9v-17.6h-17.9Z"/><rect class="cls-2" x="178.74" y="296.81" width="4.8" height="9.3"/><path class="cls-2" d="M178.94,310.51a2.2,2.2,0,1,1,2.2,2.2,2.22,2.22,0,0,1-2.2-2.2"/><rect class="cls-3" x="161.54" y="277.21" width="18.9" height="18.6"/><path class="cls-1" d="M180.94,296.41H161v-19.6h19.9Zm-18.9-1h17.9v-17.6H162Z"/><rect class="cls-2" x="168.65" y="277.21" width="4.8" height="9.3"/><path class="cls-2" d="M168.85,290.91a2.2,2.2,0,1,1,2.19,2.2,2.22,2.22,0,0,1-2.19-2.2"/><rect class="cls-3" x="191.54" y="316.31" width="18.9" height="18.6"/><path class="cls-1" d="M210.85,335.41H191v-19.6h19.9v19.6Zm-18.81-1h17.9v-17.6H192Z"/><rect class="cls-2" x="198.54" y="316.31" width="4.8" height="9.3"/><path class="cls-2" d="M198.74,330a2.2,2.2,0,1,1,2.2,2.2,2.22,2.22,0,0,1-2.2-2.2"/><path class="cls-4" d="M119.24,318.41c-.2-.9-.8-3.3-2.2-2.6-2.3,1.2.5,5.9-2.3,6.7-.2-1.9-.5-3.1-1.4-3-1.7.2-1.3,4.2-1.3,5.1s-.1,1.8-.1,2.7c-2,.4-1.6-4.9-2.9-5.7-1.9-1.1-2.3,1.4-2.3,2.6.1,2,.6,4.4,2.5,5.4a6.62,6.62,0,0,0,2.6.7,35.93,35.93,0,0,0,.3,4.7h0l1.1.1h0a.4.4,0,0,0,.8,0c0-1,.6-5.7.7-9.7a4.3,4.3,0,0,0,2.7-.8c2-1.4,2.2-4,1.8-6.2"/><path class="cls-5" d="M113.74,335.71a.37.37,0,0,1-.3-.1c-.1-.1-.2-.2-.2-.3h-1.1v-.2a29,29,0,0,1-.3-4.5,4.88,4.88,0,0,1-2.4-.7c-2-1.1-2.5-3.7-2.6-5.6,0-.8.1-2.4,1-2.9a1.4,1.4,0,0,1,1.6.2c.6.4.8,1.4,1.1,2.7.4,1.7.7,2.9,1.5,2.9v-.4c0-.7.1-1.4.1-2.1v-.6c-.1-1.6-.2-4.5,1.5-4.7a1.45,1.45,0,0,1,.7.2,3.84,3.84,0,0,1,.9,2.7c1-.5,1-1.7.9-3.1s-.1-2.9,1.1-3.5a1.08,1.08,0,0,1,1.1,0c1,.5,1.4,2.5,1.4,2.8.3,1.7.4,4.8-1.9,6.4a3.85,3.85,0,0,1-2.6.8c-.1,2.6-.3,5.5-.5,7.4-.1,1-.2,1.7-.2,2a.55.55,0,0,1-.3.5,2.3,2.3,0,0,0-.5.1m-1.39-.9,1.19.1v.2c0,.1,0,.1.1.1h.2a.1.1,0,0,0,.1-.1c0-.3.1-1.1.2-2.1.2-2,.5-5,.5-7.6v-.2h.2a4.3,4.3,0,0,0,2.5-.7c2.1-1.5,2-4.4,1.7-6-.1-.7-.5-2.1-1.2-2.4a.85.85,0,0,0-.7,0c-1,.5-.9,1.8-.9,3.1.1,1.5.1,3.1-1.5,3.6l-.3.1v-.3c-.2-1.8-.5-2.5-.8-2.7-.1-.1-.2-.1-.4-.1-1.3.1-1.2,2.9-1.1,4.2v.6c0,.7-.1,1.4-.1,2.1v.8h-.2c-1.4.2-1.8-1.6-2.1-3.3-.2-1.1-.5-2.2-.9-2.4a1.4,1.4,0,0,0-1.2-.2c-.6.4-.8,1.8-.8,2.5.1,1.8.6,4.2,2.4,5.3a4.1,4.1,0,0,0,2.4.6h.2v.2c.2,1.9.3,3.3.51,4.6"/><path class="cls-5" d="M107.64,324.21c.2,0,.4.1.7.1s.2-.3,0-.4-.4-.1-.7-.1-.19.4,0,.4"/><path class="cls-5" d="M108.64,321.21v.3c0,.2.4.2.4,0v-.3c0-.2-.4-.2-.4,0"/><path class="cls-5" d="M110,324.71c.19-.1.3-.2.5-.3s0-.4-.2-.3-.3.2-.5.3,0,.4.2.3"/><path class="cls-5" d="M108,329.11c.2-.1.41-.3.6-.4s0-.5-.19-.3-.41.3-.6.4,0,.4.19.3"/><path class="cls-5" d="M106.54,325.81c.1.1.31.1.41.2s.3-.3.09-.4-.3-.1-.4-.2-.29.3-.1.4"/><path class="cls-5" d="M109.35,327.61c.1,0,.1,0,.19.1s.41-.1.31-.3a.79.79,0,0,0-.5-.2c-.21,0-.21.3,0,.4"/><path class="cls-5" d="M110.14,329.31a1.48,1.48,0,0,0,.1.7c.1.2.4,0,.3-.2a.65.65,0,0,1-.09-.4c.09-.2-.21-.3-.31-.1"/><path class="cls-5" d="M112.14,329.41c.1,0,.2.1.31.1s.3-.3.09-.4-.19-.1-.3-.1a.22.22,0,0,0-.1.4"/><path class="cls-5" d="M113.35,325.71a1.55,1.55,0,0,0,.19.6.22.22,0,0,0,.31-.3.37.37,0,0,1-.1-.3.2.2,0,1,0-.4,0"/><path class="cls-5" d="M112.85,323a.9.9,0,0,0-.1.5c0,.2.4.1.4-.1s0-.1.1-.2-.21-.4-.4-.2"/><path class="cls-5" d="M115,324.11v.3c0,.2.4.2.4,0v-.3a.2.2,0,1,0-.4,0"/><path class="cls-5" d="M111.45,323.51c.09.1.19.1.3.2s.4-.2.2-.3-.2-.1-.31-.2-.4.1-.19.3"/><path class="cls-5" d="M112,320.31a.37.37,0,0,1,.1.3c0,.2.4.2.4,0a1.4,1.4,0,0,0-.19-.6.23.23,0,0,0-.31.3"/><path class="cls-5" d="M113,319.21v.5c0,.2.41.2.41,0v-.5a.21.21,0,1,0-.41,0"/><path class="cls-5" d="M115.35,321.41l.19.2c.2.2.41-.1.31-.3l-.2-.2a.22.22,0,0,0-.3.3"/><path class="cls-5" d="M115.74,319.21h.5c.2,0,.2-.4,0-.4h-.5c-.2,0-.2.3,0,.4"/><path class="cls-5" d="M116.24,316.11l.3.3c.2.2.41-.1.31-.3l-.31-.3a.22.22,0,0,0-.3.3"/><path class="cls-5" d="M117.74,315.11v.6c0,.2.4.2.4,0v-.6c0-.2-.4-.2-.4,0"/><path class="cls-5" d="M118.45,318.71c.09-.1.09-.2.19-.3s-.19-.4-.3-.2-.1.2-.2.3.21.4.31.2"/><path class="cls-5" d="M117.14,322.41c.1-.1.31-.1.4-.2s.1-.5-.09-.4-.31.1-.41.2-.09.5.1.4"/><path class="cls-5" d="M118.85,321.91c.1,0,.3-.1.4-.1a.21.21,0,0,0-.1-.4c-.1,0-.3.1-.4.1-.3.1-.11.4.1.4"/><path class="cls-5" d="M117.74,323.71h0c0,.3.4.3.4.1v-.1a.2.2,0,1,0-.4,0"/><path class="cls-5" d="M114.54,329.51c.1-.1.2-.1.31-.2s0-.5-.2-.3-.2.1-.3.2-.11.4.19.3"/><path class="cls-5" d="M114.24,330.91c.2-.1.3-.2.5-.3a.21.21,0,0,0-.1-.4,1.52,1.52,0,0,0-.69.4c-.1.2.19.4.29.3"/><path class="cls-5" d="M112.74,331.11c0,.1.1.1.1.2s.4,0,.3-.2-.1-.1-.1-.2-.4,0-.3.2"/><path class="cls-5" d="M111.24,331.51a1.48,1.48,0,0,0,.7.1c.2,0,.1-.4-.1-.4a.76.76,0,0,1-.4-.1c-.2,0-.4.3-.2.4"/><path class="cls-5" d="M114.45,327.91c.3,0,.5-.1.8-.1s.2-.4,0-.4-.5.1-.8.1a.2.2,0,1,0,0,.4"/><polygon class="cls-3" points="118.55 346.01 107.94 346.01 106.25 337.51 120.25 337.51 118.55 346.01"/><path class="cls-1" d="M119,346.51H107.54l-1.9-9.6h15.2Zm-10.6-1H118l1.5-7.6H106.85Z"/><path class="cls-3" d="M121.85,336.61a.9.9,0,0,1-.9.9H105.54a.9.9,0,0,1-.9-.9v-2.1a.9.9,0,0,1,.9-.9H121a.9.9,0,0,1,.9.9Z"/><path class="cls-1" d="M121,338H105.54a1.37,1.37,0,0,1-1.4-1.4v-2.1a1.37,1.37,0,0,1,1.4-1.4H121a1.37,1.37,0,0,1,1.4,1.4v2.1A1.51,1.51,0,0,1,121,338Zm-15.41-3.8a.44.44,0,0,0-.4.4v2.1a.43.43,0,0,0,.4.4H121a.44.44,0,0,0,.4-.4v-2.1a.43.43,0,0,0-.4-.4Z"/><rect class="cls-3" x="249.85" y="178.31" width="19.5" height="19.3"/><path class="cls-1" d="M269.85,198.11h-20.5v-20.3h20.5Zm-19.5-1h18.5v-18.3h-18.5Z"/><rect class="cls-2" x="257.15" y="178.31" width="4.9" height="9.6"/><path class="cls-2" d="M261.85,192.51a2.31,2.31,0,1,0-2.31,2.3,2.27,2.27,0,0,0,2.31-2.3"/><rect class="cls-3" x="229.15" y="178.31" width="19.5" height="19.3"/><path class="cls-1" d="M249.24,198.11h-20.5v-20.3h20.5Zm-19.59-1h18.5v-18.3h-18.5Z"/><rect class="cls-2" x="236.44" y="178.31" width="4.9" height="9.6"/><path class="cls-2" d="M241.24,192.51a2.3,2.3,0,1,0-2.3,2.3,2.26,2.26,0,0,0,2.3-2.3"/><rect class="cls-3" x="239.54" y="158.11" width="19.5" height="19.3"/><path class="cls-1" d="M259.54,177.91H239v-20.3h20.5Zm-19.5-1h18.5v-18.3H240Z"/><rect class="cls-2" x="246.85" y="158.11" width="4.9" height="9.6"/><path class="cls-2" d="M251.54,172.31a2.3,2.3,0,1,0-2.3,2.3,2.26,2.26,0,0,0,2.3-2.3"/><path class="cls-3" d="M210.24,193.21v-14h4.3l6.5,19.4h55.2v8.3h-4.39a6.86,6.86,0,0,0-13.4,0H217a9.67,9.67,0,0,0,.5-3.4,11.06,11.06,0,0,0-7.3-10.3"/><path class="cls-1" d="M276.65,207.41h-5.3l-.11-.4a6.41,6.41,0,0,0-6.2-5,6.3,6.3,0,0,0-6.19,5l-.11.4h-42.5l.2-.7a12,12,0,0,0,.5-3.3,10.33,10.33,0,0,0-7-9.8l-.3-.1v-14.9h5.2l6.5,19.4h55.3v9.4Zm-4.41-1h3.5v-7.3H220.65l-6.5-19.4h-3.5v13.2a11.42,11.42,0,0,1,7.3,10.7,9.25,9.25,0,0,1-.4,2.9H258a7.51,7.51,0,0,1,7.11-5.4A7.4,7.4,0,0,1,272.24,206.41Z"/><path class="cls-3" d="M259.35,207.21a5.93,5.93,0,0,1,11.6,0,5.7,5.7,0,0,1,.1,1.3,6,6,0,0,1-12,0c.1-.5.19-.9.3-1.3"/><path class="cls-1" d="M265.15,214.91a6.48,6.48,0,0,1-6.5-6.5,6.75,6.75,0,0,1,.2-1.4h0a6.47,6.47,0,0,1,12.6,0,6.75,6.75,0,0,1,.2,1.4A6.62,6.62,0,0,1,265.15,214.91Zm0-11.9a5.45,5.45,0,0,0-5.3,4.3h0a4.44,4.44,0,0,0-.11,1.2,5.48,5.48,0,0,0,5.5,5.5,5.42,5.42,0,0,0,5.5-5.5,4.87,4.87,0,0,0-.1-1.2A5.93,5.93,0,0,0,265.15,203Z"/><polygon class="cls-3" points="205.84 188.61 210.25 193.21 210.25 152.71 205.84 152.71 205.84 188.61"/><path class="cls-1" d="M210.74,194.51l-5.39-5.7v-36.6h5.39Zm-4.39-6.1,3.39,3.6v-38.8h-3.39Z"/><rect class="cls-3" x="198.54" y="152.71" width="18.8" height="4.4"/><path class="cls-1" d="M217.94,157.61H198v-5.4h19.81v5.4Zm-18.9-1h17.81v-3.4H199Z"/><path class="cls-3" d="M195.85,204a10.3,10.3,0,1,1,10.3,10.3,10.29,10.29,0,0,1-10.3-10.3"/><path class="cls-1" d="M206.15,214.81A10.8,10.8,0,1,1,217,204,10.82,10.82,0,0,1,206.15,214.81Zm0-20.7a9.8,9.8,0,1,0,9.8,9.8A9.7,9.7,0,0,0,206.15,194.11Z"/><path class="cls-3" d="M201.65,204a4.5,4.5,0,1,0,4.5-4.5,4.36,4.36,0,0,0-4.5,4.5"/><path class="cls-1" d="M206.15,208.91A4.9,4.9,0,1,1,211,204,4.91,4.91,0,0,1,206.15,208.91Zm0-9.1a4.2,4.2,0,1,0,4.2,4.2A4.23,4.23,0,0,0,206.15,199.81Z"/><path class="cls-3" d="M203.65,204a2.58,2.58,0,0,0,2.6,2.6,2.52,2.52,0,0,0,2.6-2.6,2.58,2.58,0,0,0-2.6-2.6,2.52,2.52,0,0,0-2.6,2.6"/><path class="cls-1" d="M206.15,206.91A2.9,2.9,0,1,1,209,204,2.83,2.83,0,0,1,206.15,206.91Zm0-5.1a2.2,2.2,0,1,0,2.2,2.2A2.22,2.22,0,0,0,206.15,201.81Z"/><path class="cls-3" d="M261.74,208.51a3.27,3.27,0,0,0,3.3,3.3,3.3,3.3,0,1,0,0-6.6,3.2,3.2,0,0,0-3.3,3.3"/><path class="cls-1" d="M265.15,212.21a3.69,3.69,0,0,1-3.7-3.7,3.76,3.76,0,0,1,3.7-3.7,3.69,3.69,0,0,1,3.7,3.7A3.76,3.76,0,0,1,265.15,212.21Zm0-6.7a3,3,0,0,0-3,3,3,3,0,0,0,3,3,3,3,0,0,0,0-6Z"/><path class="cls-3" d="M263.24,208.51a1.9,1.9,0,1,0,1.9-1.9,1.84,1.84,0,0,0-1.9,1.9"/><path class="cls-1" d="M265.15,210.71a2.3,2.3,0,1,1,2.3-2.3A2.33,2.33,0,0,1,265.15,210.71Zm0-3.8a1.5,1.5,0,1,0,1.5,1.5A1.54,1.54,0,0,0,265.15,206.91Z"/><rect class="cls-3" x="309.25" y="279.61" width="20.5" height="20.3"/><path class="cls-1" d="M330.25,300.41h-21.5v-21.3h21.5Zm-20.5-1h19.5v-19.3h-19.5Z"/><rect class="cls-2" x="316.94" y="279.61" width="5.2" height="10.1"/><path class="cls-2" d="M317.15,294.51a2.4,2.4,0,1,1,2.39,2.4,2.37,2.37,0,0,1-2.39-2.4"/><path class="cls-3" d="M307.15,260.41a2.44,2.44,0,0,1-2.4,2.4H286.54a2.43,2.43,0,0,1-2.39-2.4v-6.8a2.43,2.43,0,0,1,2.39-2.4h18.21a2.44,2.44,0,0,1,2.4,2.4Z"/><path class="cls-1" d="M304.65,263.41H286.44a2.9,2.9,0,0,1-2.9-2.9v-6.9a2.9,2.9,0,0,1,2.9-2.9h18.21a2.89,2.89,0,0,1,2.89,2.9v6.8A2.8,2.8,0,0,1,304.65,263.41Zm-18.11-11.7a1.89,1.89,0,0,0-1.89,1.9v6.8a1.89,1.89,0,0,0,1.89,1.9h18.21a1.9,1.9,0,0,0,1.9-1.9v-6.8a1.9,1.9,0,0,0-1.9-1.9Z"/><rect class="cls-3" x="294.15" y="262.91" width="2.9" height="38"/><path class="cls-1" d="M297.54,301.31h-3.89v-39h3.89Zm-2.89-1h1.89v-37h-1.89Z"/><polygon class="cls-3" points="341.85 307.51 289.25 307.51 289.25 300.81 346.75 300.81 346.75 304.21 341.85 307.51"/><path class="cls-1" d="M341.94,308h-53.2v-7.6h58.4v4.1Zm-52.19-1h51.9l4.5-3.1v-2.6h-56.4Z"/><rect class="cls-3" x="294.25" y="307.51" width="47.7" height="4.2"/><path class="cls-1" d="M342.44,312.21h-48.7V307h48.7Zm-47.69-1h46.7V308h-46.7Z"/><path class="cls-6" d="M291.94,256.61h.5a.85.85,0,0,0,.6-.2c.21-.1.21-.3.21-.6a1.31,1.31,0,0,0-.21-.6.83.83,0,0,0-.6-.2,1.42,1.42,0,0,0-.6.2.76.76,0,0,0-.2.5h-.9a1.45,1.45,0,0,1,.2-.7,1,1,0,0,1,.6-.5,2.35,2.35,0,0,1,.8-.2,1.59,1.59,0,0,1,1.2.4,1.37,1.37,0,0,1,.4,1.1,1.85,1.85,0,0,1-.2.7,1,1,0,0,1-.6.5,1.79,1.79,0,0,1,.7.5,1.85,1.85,0,0,1,.2.7,1.43,1.43,0,0,1-.5,1.1,1.67,1.67,0,0,1-1.29.4,1.63,1.63,0,0,1-1.21-.4,1.43,1.43,0,0,1-.5-1.1h.9a1.31,1.31,0,0,0,.21.6,1.38,1.38,0,0,0,.6.2.86.86,0,0,0,.6-.2c.2-.1.2-.3.2-.6a.85.85,0,0,0-.2-.6,1.45,1.45,0,0,0-.7-.2h-.5v-.8Z"/><path class="cls-6" d="M295.65,255.71c.2,0,.29,0,.39.1a.46.46,0,0,1,0,.6c-.1.1-.2.1-.39.1s-.3,0-.4-.1a.37.37,0,0,1-.1-.3c0-.1,0-.3.1-.3s.19-.1.4-.1m0,3c.2,0,.29,0,.39.1a.46.46,0,0,1,0,.6c-.1.1-.2.1-.39.1s-.3,0-.4-.1a.37.37,0,0,1-.1-.3c0-.1,0-.3.1-.3s.19-.1.4-.1"/><path class="cls-6" d="M300.34,257.51a2.86,2.86,0,0,1-.4,1.7,1.7,1.7,0,0,1-2.59,0,2.54,2.54,0,0,1-.4-1.6v-1a2.86,2.86,0,0,1,.4-1.7,1.49,1.49,0,0,1,1.3-.6,1.69,1.69,0,0,1,1.29.5,2.54,2.54,0,0,1,.4,1.6Zm-.8-1a3.09,3.09,0,0,0-.2-1.1c-.1-.3-.3-.3-.6-.3a.6.6,0,0,0-.6.3,2.51,2.51,0,0,0-.2,1v1.2a3.09,3.09,0,0,0,.2,1.1.68.68,0,0,0,.6.4.6.6,0,0,0,.6-.3,2.51,2.51,0,0,0,.2-1Z"/><path class="cls-2" d="M609.45,202.61v-13.8s2.9-1.3,4.4,1.2.8,8.1.8,8.1c2.6-.3,5.4-.8,8-.2a3.78,3.78,0,0,1,3,2c.4.8.9,2.7-.6,2.7h-15.6Z"/><rect class="cls-3" x="658.54" y="157.81" width="19.3" height="19"/><path class="cls-1" d="M678.25,177.31H658v-20h20.3v20Zm-19.21-1h18.3v-18H659Z"/><rect class="cls-2" x="665.75" y="157.81" width="4.9" height="9.5"/><path class="cls-2" d="M666,171.71a2.2,2.2,0,1,1,2.2,2.2,2.1,2.1,0,0,1-2.2-2.2"/><rect class="cls-3" x="658.54" y="177.81" width="19.3" height="19"/><path class="cls-1" d="M678.25,197.31H658v-20h20.3v20Zm-19.21-1h18.3v-18H659Z"/><rect class="cls-2" x="665.75" y="177.81" width="4.9" height="9.5"/><path class="cls-2" d="M666,192.21a2.2,2.2,0,1,1,2.2,2.2,2.1,2.1,0,0,1-2.2-2.2"/><rect class="cls-1" x="653.25" y="173.31" width="1" height="30.9"/><line class="cls-7" x1="650.84" y1="204.61" x2="637.45" y2="175.61"/><rect class="cls-1" x="643.64" y="174.09" width="1" height="32" transform="translate(-20.45 286.88) rotate(-24.73)"/><line class="cls-7" x1="624.54" y1="195.31" x2="630.54" y2="189.31"/><rect class="cls-1" x="623.25" y="191.81" width="8.6" height="1" transform="translate(47.82 500.07) rotate(-45)"/><line class="cls-7" x1="627.54" y1="192.31" x2="634.84" y2="199.61"/><rect class="cls-1" x="630.79" y="190.76" width="1" height="10.4" transform="translate(46.36 503.83) rotate(-45)"/><path class="cls-3" d="M641,204.41a1.15,1.15,0,0,1,0,1.7l-1.4,1.4a1.15,1.15,0,0,1-1.7,0l-8.3-9.9a1.15,1.15,0,0,1,0-1.7l1.4-1.4a1.16,1.16,0,0,1,1.71,0Z"/><path class="cls-1" d="M638.84,208.41a1.85,1.85,0,0,1-1.2-.5l-8.4-10a1.82,1.82,0,0,1,0-2.4l1.4-1.4a1.85,1.85,0,0,1,1.2-.5h0a1.64,1.64,0,0,1,1.2.5l8.41,9.9a1.63,1.63,0,0,1,0,2.4l-1.41,1.4A1.4,1.4,0,0,1,638.84,208.41Zm-7-13.7a.76.76,0,0,0-.5.2l-1.4,1.4a.67.67,0,0,0,0,1l8.4,10a.67.67,0,0,0,1,0l1.41-1.4a.68.68,0,0,0,0-1h0l-8.3-9.9a.61.61,0,0,0-.61-.3Z"/><path class="cls-3" d="M647.34,197.11l-11.09-3.2a1.16,1.16,0,0,0-1.21,1.2v12.8a1.16,1.16,0,0,0,1.21,1.2H648c.71,0,4.1-.4,4.1-1.1Z"/><path class="cls-1" d="M648.14,209.61h-11.8a1.69,1.69,0,0,1-1.7-1.7v-12.8a1.69,1.69,0,0,1,1.7-1.7h.1l11.3,3.3,5,11.3C652.75,209.31,648.14,209.61,648.14,209.61Zm-11.89-15.3a.69.69,0,0,0-.71.7v12.8a.69.69,0,0,0,.71.7H648a14.27,14.27,0,0,0,3.6-.7l-4.7-10.4Z"/><path class="cls-3" d="M629.84,209.11l-2.09-6.4H609.34v-15.5a.09.09,0,0,0-.09-.1l-9,5c-.1,0-.1,0-.1.1v23.3a.1.1,0,0,0,.1.1H659s2.7,0,2.7-1.8v-6.4c0-3.8-6.4-4.7-10.2-4.7a11.51,11.51,0,0,0-10.3,6.4Z"/><path class="cls-1" d="M659,216h-58.7a.65.65,0,0,1-.6-.6v-23.3a.68.68,0,0,1,.4-.6l9-5h.1a.65.65,0,0,1,.6.6v15H628l2.1,6.4h10.6a11.83,11.83,0,0,1,10.6-6.4c1.8,0,10.7.2,10.7,5.2v6.4a1.82,1.82,0,0,1-.6,1.4A4.16,4.16,0,0,1,659,216Zm-58.31-1h58.3a3,3,0,0,0,1.9-.6.91.91,0,0,0,.3-.7v-6.4c0-3.3-6.1-4.2-9.7-4.2a11,11,0,0,0-9.9,6.1l-.1.3h-11.9l-2.1-6.4h-18.6v-15.4l-8.2,4.5Z"/><rect class="cls-1" x="608.95" y="175.01" width="1" height="27.6"/><polygon class="cls-1" points="682.64 198.21 653.25 198.21 653.25 185.81 654.25 185.81 654.25 197.21 682.64 197.21 682.64 198.21"/><path class="cls-3" d="M659.84,214.21a8.4,8.4,0,1,0-8.4,8.4,8.45,8.45,0,0,0,8.4-8.4"/><path class="cls-1" d="M651.45,223.11a8.9,8.9,0,1,1,8.9-8.9A8.92,8.92,0,0,1,651.45,223.11Zm0-16.8a7.9,7.9,0,1,0,7.9,7.9A7.86,7.86,0,0,0,651.45,206.31Z"/><path class="cls-3" d="M620,214.21a8.4,8.4,0,1,0-8.4,8.4,8.44,8.44,0,0,0,8.4-8.4"/><path class="cls-1" d="M611.64,223.11a8.9,8.9,0,1,1,8.9-8.9A8.92,8.92,0,0,1,611.64,223.11Zm0-16.8a7.9,7.9,0,1,0,7.9,7.9A7.85,7.85,0,0,0,611.64,206.31Z"/><path class="cls-3" d="M636.64,172.81h-29a.86.86,0,0,0-.8.8v2.7a.87.87,0,0,0,.8.8h34.2c1.7,0-1.2-4.3-5.2-4.3"/><path class="cls-1" d="M641.84,177.61h-34.2a1.32,1.32,0,0,1-1.3-1.3v-2.7a1.32,1.32,0,0,1,1.3-1.3h29c3.4,0,6.2,2.9,6.2,4.3a1,1,0,0,1-1,1Zm-34.2-4.3a.27.27,0,0,0-.3.3v2.7a.27.27,0,0,0,.3.3h34.2a1.78,1.78,0,0,0-.5-1,6.25,6.25,0,0,0-4.7-2.3Z"/><path class="cls-3" d="M655.34,214.21a3.9,3.9,0,1,1-3.9-3.9,3.9,3.9,0,0,1,3.9,3.9"/><path class="cls-1" d="M651.45,218.51a4.4,4.4,0,1,1,4.4-4.4A4.44,4.44,0,0,1,651.45,218.51Zm0-7.7a3.4,3.4,0,1,0,3.4,3.4A3.37,3.37,0,0,0,651.45,210.81Z"/><path class="cls-3" d="M653.64,214.21a2.2,2.2,0,1,1-2.2-2.2,2.16,2.16,0,0,1,2.2,2.2"/><path class="cls-1" d="M651.45,216.71a2.6,2.6,0,1,1,2.59-2.6A2.64,2.64,0,0,1,651.45,216.71Zm0-4.4a1.8,1.8,0,1,0,1.8,1.8A1.79,1.79,0,0,0,651.45,212.31Z"/><path class="cls-3" d="M615.54,214.21a3.9,3.9,0,1,1-3.9-3.9,3.84,3.84,0,0,1,3.9,3.9"/><path class="cls-1" d="M611.64,218.51a4.4,4.4,0,1,1,4.4-4.4A4.37,4.37,0,0,1,611.64,218.51Zm0-7.7a3.4,3.4,0,1,0,3.4,3.4A3.37,3.37,0,0,0,611.64,210.81Z"/><path class="cls-3" d="M613.84,214.21a2.2,2.2,0,1,1-2.2-2.2,2.16,2.16,0,0,1,2.2,2.2"/><path class="cls-1" d="M611.64,216.71a2.6,2.6,0,1,1,2.6-2.6A2.58,2.58,0,0,1,611.64,216.71Zm0-4.4a1.8,1.8,0,1,0,1.8,1.8A1.79,1.79,0,0,0,611.64,212.31Z"/><rect class="cls-1" x="578.75" y="208.11" width="12.7" height="1"/><rect class="cls-1" x="572.04" y="204.51" width="18.1" height="1"/><path class="cls-4" d="M677.84,276a9,9,0,0,0-9,9c0,4.1,6.5,13.8,9,18,2.5-4.3,9-13.9,9-18a9,9,0,0,0-9-9m0,13.3a4.4,4.4,0,1,1,4.41-4.4,4.38,4.38,0,0,1-4.41,4.4"/><path class="cls-5" d="M677.55,304l-.38-.81c-.49-.81-1.06-1.92-1.74-3-3-5.06-7-11.94-6.88-15.44a9.5,9.5,0,1,1,19,.39c-.07,3.4-4.41,10.21-7.51,15.15-.73,1.18-1.35,2.17-1.86,3Zm.57-27.5a8.51,8.51,0,0,0-8.68,8.33c-.06,3.2,4.09,10.18,6.8,14.84.48.81,1,1.62,1.35,2.33.42-.69.93-1.48,1.45-2.27,2.89-4.54,7.34-11.45,7.4-14.55A8.49,8.49,0,0,0,678.12,276.51Zm-.28,13.3a4.9,4.9,0,1,1,5-4.8A4.91,4.91,0,0,1,677.84,289.81Zm.18-8.7a3.91,3.91,0,0,0-4,3.82,3.9,3.9,0,0,0,7.8.16A3.91,3.91,0,0,0,678,281.11Z"/><path class="cls-1" d="M674.14,268.51v4.1a.3.3,0,0,1-.6,0v-4.1a.27.27,0,0,1,.3-.3.43.43,0,0,1,.3.3"/><path class="cls-1" d="M682.14,268.51v4.1a.3.3,0,0,1-.6,0v-4.1a.27.27,0,0,1,.3-.3.32.32,0,0,1,.3.3"/><path class="cls-1" d="M678.14,263.41v7.7a.3.3,0,0,1-.6,0v-7.7a.3.3,0,0,1,.6,0"/><path class="cls-2" d="M727.14,335.71h-3.4a5.9,5.9,0,0,1,.2,1.4,3.75,3.75,0,0,1-.1,1.1h3.41v-2.5Z"/><path class="cls-2" d="M706.84,335.71h-2.59v2.5h2.59c0-.4-.09-.8-.09-1.1a6.82,6.82,0,0,1,.09-1.4"/><path class="cls-2" d="M677.25,337a5,5,0,0,1,.09,1.1v.7h26.2V337Z"/><path class="cls-3" d="M703,304.81V311h.5v25.5H677a7.9,7.9,0,0,0-7.59-6.2,7.79,7.79,0,0,0-7.41,5.3l-.29.2h-6.41v-7h-2v-24Z"/><path class="cls-1" d="M704,337H676.75l-.1-.4a7.4,7.4,0,0,0-7.2-5.8,7.31,7.31,0,0,0-6.91,5l-.09.2-.6.4h-7.1v-7h-2v-25h50.6v6.2h.5V337Zm-26.5-1H703v-24.5h-.5v-6.2H654v23h2v7h5.8a8.29,8.29,0,0,1,7.79-5.5A8.54,8.54,0,0,1,677.54,336Z"/><rect class="cls-2" x="653.54" y="328.91" width="1.2" height="6.1"/><path class="cls-2" d="M661.75,336.41h-7v1.8h7v-.7a1.87,1.87,0,0,1,0-1.1"/><path class="cls-3" d="M727,322.31V335h-3.8a8.36,8.36,0,0,0-16.2,0h-2.8V311h17.6Z"/><path class="cls-1" d="M727.45,335.51h-4.7l-.1-.4a7.84,7.84,0,0,0-15.2,0l-.1.4h-3.7v-25h18.5l5.4,11.8v13.2Zm-3.91-1h2.91v-12.1l-5-10.9h-16.8v23h1.9a8.88,8.88,0,0,1,17,0Z"/><polygon class="cls-2" points="706.04 312.81 706.04 318.71 712.85 318.71 717.95 323.01 724.64 323.01 720.95 312.81 706.04 312.81"/><path class="cls-3" d="M675.25,338a5.71,5.71,0,1,0-5.71,5.7,5.76,5.76,0,0,0,5.71-5.7"/><path class="cls-1" d="M669.54,344.11a6.2,6.2,0,1,1,6.21-6.2A6.23,6.23,0,0,1,669.54,344.11Zm0-11.3a5.2,5.2,0,1,0,5.21,5.2A5.16,5.16,0,0,0,669.54,332.81Z"/><path class="cls-3" d="M672.25,338a2.6,2.6,0,0,1-5.2,0,2.65,2.65,0,0,1,2.6-2.6,2.53,2.53,0,0,1,2.6,2.6"/><path class="cls-1" d="M669.54,341.11a3.1,3.1,0,1,1,3.1-3.1A3.05,3.05,0,0,1,669.54,341.11Zm0-5.3a2.1,2.1,0,0,0-2.09,2.1,2.18,2.18,0,0,0,2.09,2.1,2.1,2.1,0,1,0,0-4.2Z"/><path class="cls-3" d="M671,338a1.5,1.5,0,1,1-1.5-1.5A1.47,1.47,0,0,1,671,338"/><path class="cls-1" d="M669.54,339.81a1.9,1.9,0,0,1,0-3.8,1.9,1.9,0,1,1,0,3.8Zm0-3a1.1,1.1,0,1,0,1.1,1.1A1.11,1.11,0,0,0,669.54,336.81Z"/><path class="cls-3" d="M721.34,338a6.3,6.3,0,1,0-6.3,6.3,6.4,6.4,0,0,0,6.3-6.3"/><path class="cls-1" d="M715,344.71a6.8,6.8,0,1,1,6.8-6.8A6.8,6.8,0,0,1,715,344.71Zm0-12.5a5.8,5.8,0,1,0,5.8,5.8A5.8,5.8,0,0,0,715,332.21Z"/><path class="cls-3" d="M718,338a2.91,2.91,0,1,1-2.91-2.9A2.79,2.79,0,0,1,718,338"/><path class="cls-1" d="M715,341.41a3.4,3.4,0,1,1,3.41-3.4A3.37,3.37,0,0,1,715,341.41Zm0-5.9a2.4,2.4,0,1,0,2.41,2.4A2.44,2.44,0,0,0,715,335.51Z"/><path class="cls-3" d="M716.64,338a1.6,1.6,0,1,1-1.6-1.6,1.52,1.52,0,0,1,1.6,1.6"/><path class="cls-1" d="M715,340a2,2,0,1,1,2-2A2,2,0,0,1,715,340Zm0-3.3a1.3,1.3,0,1,0,1.3,1.3A1.32,1.32,0,0,0,715,336.71Z"/><path class="cls-3" d="M572.64,301.51a20.5,20.5,0,1,1-20.5-20.5,20.53,20.53,0,0,1,20.5,20.5"/><path class="cls-1" d="M552.14,322.51a21,21,0,1,1,21-21A21,21,0,0,1,552.14,322.51Zm0-41a20,20,0,1,0,20,20A20.06,20.06,0,0,0,552.14,281.51Z"/><path class="cls-3" d="M567.45,301.51A15.41,15.41,0,1,1,552,286.11a15.42,15.42,0,0,1,15.41,15.4"/><path class="cls-1" d="M552.14,317.41a16,16,0,1,1,16-16,16,16,0,0,1-16,16m0-30.7a14.8,14.8,0,1,0,14.8,14.8,14.83,14.83,0,0,0-14.8-14.8"/><path class="cls-1" d="M552.14,302.11a.65.65,0,0,1-.6-.6v-7.8a.6.6,0,0,1,1.2,0v7.8a.63.63,0,0,1-.6.6"/><path class="cls-1" d="M561.25,302.11H552a.6.6,0,0,1,0-1.2h9.21a.64.64,0,0,1,.59.6.57.57,0,0,1-.59.6"/><path class="cls-1" d="M552.75,287.91a.6.6,0,1,1-.6-.6.58.58,0,0,1,.6.6"/><path class="cls-1" d="M562.14,292.31a.64.64,0,0,1-.9-.9c.2-.3.6-.2.9,0a.55.55,0,0,1,0,.9"/><path class="cls-1" d="M565.75,302.11a.6.6,0,1,1,.59-.6.65.65,0,0,1-.59.6"/><path class="cls-1" d="M561.34,311.61a.75.75,0,0,1,0-.9.76.76,0,0,1,.91,0c.3.2.2.6,0,.9a.76.76,0,0,1-.91,0"/><path class="cls-1" d="M551.54,315.11a.6.6,0,1,1,.6.6.53.53,0,0,1-.6-.6"/><path class="cls-1" d="M542,310.71a.76.76,0,0,1,.91,0,.75.75,0,0,1,0,.9c-.2.3-.6.2-.91,0a.75.75,0,0,1,0-.9"/><path class="cls-1" d="M538.45,300.91a.6.6,0,0,1,0,1.2.65.65,0,0,1-.6-.6.63.63,0,0,1,.6-.6"/><path class="cls-1" d="M542.84,291.41a.64.64,0,1,1-.9.9c-.3-.2-.2-.6,0-.9a.75.75,0,0,1,.9,0"/><path class="cls-1" d="M518.75,309.31h8.6a.6.6,0,1,1,0,1.2h-8.6a.65.65,0,0,1-.6-.6.57.57,0,0,1,.6-.6"/><path class="cls-1" d="M518.75,292.51h8.6a.6.6,0,1,1,0,1.2h-8.6a.65.65,0,0,1-.6-.6.53.53,0,0,1,.6-.6"/><path class="cls-1" d="M508,300.91h16a.65.65,0,0,1,.61.6.65.65,0,0,1-.61.6H508a.65.65,0,0,1-.6-.6.58.58,0,0,1,.6-.6"/><path class="cls-3" d="M233.24,259l1.4-1.4a.67.67,0,0,0,0-1l-1.2-1.2a1.06,1.06,0,0,1-.2-1.2l1-2.4a1,1,0,0,1,.9-.7h1.7a.68.68,0,0,0,.7-.7v-2a.68.68,0,0,0-.7-.7h-1.7a1,1,0,0,1-.9-.7l-1-2.4a1.06,1.06,0,0,1,.2-1.2l1.2-1.2a.67.67,0,0,0,0-1l-1.4-1.4a.67.67,0,0,0-1,0L231,241a1.05,1.05,0,0,1-1.19.2l-2.4-1a1,1,0,0,1-.7-.9v-1.7a.68.68,0,0,0-.7-.7h-2a.68.68,0,0,0-.7.7v1.7a1,1,0,0,1-.7.9l-2.4,1a1.06,1.06,0,0,1-1.2-.2l-1.2-1.2a.67.67,0,0,0-1,0l-1.4,1.4a.67.67,0,0,0,0,1l1.2,1.2a1.06,1.06,0,0,1,.2,1.2l-1,2.4a1,1,0,0,1-.9.7h-1.7a.68.68,0,0,0-.7.7v2a.68.68,0,0,0,.7.7H215a1,1,0,0,1,.9.7l1,2.4a1.06,1.06,0,0,1-.2,1.2l-1.2,1.2a.67.67,0,0,0,0,1l1.4,1.4a.67.67,0,0,0,1,0l1.2-1.2a1.06,1.06,0,0,1,1.2-.2l2.4,1a1,1,0,0,1,.7.9v1.7a.68.68,0,0,0,.7.7h2a.68.68,0,0,0,.7-.7v-1.7a1,1,0,0,1,.7-.9l2.4-1a1.05,1.05,0,0,1,1.19.2l1.2,1.2a.67.67,0,0,0,1,0m-8.3-3.9a5.9,5.9,0,1,1,5.9-5.9,5.84,5.84,0,0,1-5.9,5.9"/><path class="cls-3" d="M246.85,264.51l-.4-1.2a.49.49,0,0,0-.6-.3l-1,.3a.55.55,0,0,1-.7-.3l-1-1.3a.64.64,0,0,1-.11-.7l.5-1a.48.48,0,0,0-.19-.6l-1.11-.6a.48.48,0,0,0-.6.2l-.5,1a.61.61,0,0,1-.7.3l-1.6-.2a.82.82,0,0,1-.6-.4l-.3-1a.49.49,0,0,0-.6-.3l-1.2.4a.49.49,0,0,0-.3.6l.3,1a.59.59,0,0,1-.3.7l-1.3,1a.62.62,0,0,1-.7.1l-1-.5a.48.48,0,0,0-.6.2l-.6,1.1a.48.48,0,0,0,.2.6l1,.5a.61.61,0,0,1,.3.7l-.2,1.6a.68.68,0,0,1-.4.6l-1,.3a.49.49,0,0,0-.3.6l.4,1.2a.49.49,0,0,0,.6.3l1-.3a.59.59,0,0,1,.7.3l1,1.3a.62.62,0,0,1,.1.7l-.5,1a.48.48,0,0,0,.2.6l1.1.6a.48.48,0,0,0,.6-.2l.5-1a.61.61,0,0,1,.7-.3l1.6.2a.68.68,0,0,1,.6.4l.3,1a.49.49,0,0,0,.6.3l1.2-.4a.49.49,0,0,0,.3-.6l-.3-1a.62.62,0,0,1,.2-.7l1.3-1a.62.62,0,0,1,.7-.1l1,.5a.48.48,0,0,0,.6-.2l.61-1.1a.48.48,0,0,0-.2-.6l-1-.5a.61.61,0,0,1-.3-.7L245,266a.82.82,0,0,1,.4-.6l1-.3c.3-.1.5-.3.41-.6m-4.61,3.4a3.62,3.62,0,1,1-1.5-4.9,3.6,3.6,0,0,1,1.5,4.9"/><rect class="cls-3" x="175.04" y="193.31" width="6" height="6"/><path class="cls-1" d="M181.54,199.81h-6.89v-6.9h6.89Zm-6-1h5.11v-5.1h-5.11Z"/><path class="cls-1" d="M167.44,194.61h5.4a.4.4,0,0,0,0-.8h-5.4a.4.4,0,0,0,0,.8"/><path class="cls-1" d="M165.35,198.71h7.39a.41.41,0,1,0,0-.8h-7.39a.45.45,0,0,0-.5.4c0,.3.19.4.5.4"/><path class="cls-1" d="M162.65,196.51h10.2a.4.4,0,0,0,0-.8h-10.2a.43.43,0,0,0-.4.4c.1.3.19.4.4.4"/><path class="cls-3" d="M618.14,249.51a10.24,10.24,0,0,0-8.8,15.4l.2.3-10.4,10.4a1.87,1.87,0,0,0-.5,1.2,2.45,2.45,0,0,0,.8,1.6,2.25,2.25,0,0,0,1.7.8,2.09,2.09,0,0,0,1.2-.4l10.41-10.4.29.2a10.71,10.71,0,0,0,5.21,1.4,10.25,10.25,0,0,0,7.2-17.5,10.46,10.46,0,0,0-7.31-3m0,17.5a7.2,7.2,0,1,1,7.2-7.2,7.17,7.17,0,0,1-7.2,7.2"/><path class="cls-1" d="M601.14,279.71a3,3,0,0,1-2.1-1,2.84,2.84,0,0,1-.9-1.9,1.9,1.9,0,0,1,.7-1.5l10.1-10.1a10.9,10.9,0,0,1,1.7-13,10.75,10.75,0,1,1,7.6,18.3,11.14,11.14,0,0,1-5.4-1.4l-10.2,10.2A3.94,3.94,0,0,1,601.14,279.71Zm17-29.7a9.44,9.44,0,0,0-6.9,2.9,9.68,9.68,0,0,0-1.5,11.8l.4.6L599.44,276a1.4,1.4,0,0,0-.4.8,1.73,1.73,0,0,0,.6,1.2,1.89,1.89,0,0,0,1.4.7,1.56,1.56,0,0,0,.9-.3l10.6-10.6.6.4a9.75,9.75,0,0,0,11.8-1.6,9.78,9.78,0,0,0,0-13.8A9.32,9.32,0,0,0,618.14,250Zm0,17.5a7.7,7.7,0,1,1,7.7-7.7A7.77,7.77,0,0,1,618.14,267.51Zm0-14.4a6.7,6.7,0,1,0,6.7,6.7A6.7,6.7,0,0,0,618.14,253.11Z"/><rect class="cls-3" x="614.34" y="259.41" width="7.4" height="1.9"/><path class="cls-1" d="M622.25,261.81h-8.41v-2.9h8.41Zm-7.41-1h6.41v-.9h-6.41Z"/><rect class="cls-3" x="520.94" y="243.01" width="6" height="6"/><path class="cls-1" d="M527.44,249.51h-6.9v-6.9h6.9Zm-6-.9h5.1v-5.1h-5.1Z"/><path class="cls-1" d="M513.34,244.31h5.4a.4.4,0,1,0,0-.8h-5.4a.43.43,0,0,0-.4.4c.1.3.21.4.4.4"/><path class="cls-1" d="M511.34,248.51h7.4a.41.41,0,1,0,0-.8h-7.4a.41.41,0,1,0,0,.8"/><path class="cls-1" d="M508.65,246.31h10.2a.43.43,0,0,0,.4-.4.44.44,0,0,0-.4-.4h-10.2a.4.4,0,0,0,0,.8"/><path class="cls-3" d="M470.15,148.31v-1.2a15.86,15.86,0,0,0-22.8-14.3,33.1,33.1,0,0,0-64.81,9.5,31.79,31.79,0,0,0,.61,6.2A21.92,21.92,0,0,0,365,170.11h0a22.17,22.17,0,0,0,22.11,22.1H467a22.17,22.17,0,0,0,22.11-22.1h0a22.35,22.35,0,0,0-19-21.8"/><path class="cls-1" d="M466.94,192.71H387a22.59,22.59,0,0,1-4.6-44.7,39.15,39.15,0,0,1-.5-5.8,33.57,33.57,0,0,1,65.6-10.1,16.68,16.68,0,0,1,6.61-1.4,16.47,16.47,0,0,1,16.39,16.4v.8a22.74,22.74,0,0,1,18.9,22.3A22.47,22.47,0,0,1,466.94,192.71Zm-51.29-83.1A32.61,32.61,0,0,0,383,142.21a31.55,31.55,0,0,0,.61,6.1l.1.5-.5.1a21.57,21.57,0,0,0,3.9,42.8H467a21.56,21.56,0,0,0,3.11-42.9l-.5-.1V147a15.41,15.41,0,0,0-15.4-15.4,15.68,15.68,0,0,0-6.71,1.5l-.5.3-.2-.6A32.73,32.73,0,0,0,415.65,109.61Z"/><path class="cls-4" d="M424.54,214.31l16,16.3h0a4.24,4.24,0,0,0,1.8,1.1h0a5,5,0,0,0,1.2.2h.7c.1,0,.2,0,.2-.1h.21c.1,0,.1,0,.2-.1s.2-.1.3-.1h.1a5.4,5.4,0,0,0,1.29-.8l16.3-16a4.24,4.24,0,0,0-5.9-6.1l-9.2,9v-59.6a4.2,4.2,0,1,0-8.4,0v59.2l-8.8-8.9a4.17,4.17,0,0,0-6,0,4.22,4.22,0,0,0,0,5.9"/><path class="cls-5" d="M443.54,232.31a6.66,6.66,0,0,1-1.39-.2,4.48,4.48,0,0,1-2-1.2l-16-16.3a4.8,4.8,0,0,1,3.39-8.1,4.53,4.53,0,0,1,3.3,1.4l7.9,8.1v-57.9a4.71,4.71,0,0,1,9.41,0v58.3l8.29-8.1a4.3,4.3,0,0,1,3.4-1.3,4.53,4.53,0,0,1,3.3,1.4,4.3,4.3,0,0,1,1.3,3.4,5,5,0,0,1-1.4,3.3l-16.3,16a4.19,4.19,0,0,1-1.4.9.76.76,0,0,1-.4.1l-.4.1h-.6A.59.59,0,0,1,443.54,232.31Zm.9-1.1.21.5-.11-.5.21-.1a.35.35,0,0,0,.2-.1,5,5,0,0,0,1.2-.8l16.3-16a3.62,3.62,0,0,0,0-5.2,3.77,3.77,0,0,0-5.3-.1l-10,9.8v-60.6a3.69,3.69,0,0,0-3.7-3.7,3.76,3.76,0,0,0-3.7,3.7v60.4l-9.71-9.8a3.62,3.62,0,0,0-5.2,0,3.68,3.68,0,0,0,0,5.3l16,16.3a3.91,3.91,0,0,0,1.6,1,6.75,6.75,0,0,0,1.4.2h.3Z"/><path class="cls-4" d="M429.84,171.41l-16-16.3h0A4.18,4.18,0,0,0,412,154h0a4.86,4.86,0,0,0-1.2-.2h-.69c-.11,0-.21,0-.21.1h-.2c-.1,0-.1,0-.2.1s-.2.1-.3.1h-.1a5.67,5.67,0,0,0-1.3.8l-16.3,16a4.24,4.24,0,1,0,5.9,6.1l9.21-9v59.6a4.2,4.2,0,1,0,8.4,0v-59.2l8.8,8.9a4.17,4.17,0,0,0,6,0,4.23,4.23,0,0,0,0-5.9"/><path class="cls-5" d="M410.75,232.31a4.7,4.7,0,0,1-4.71-4.7v-58.3l-8.29,8.1a4.67,4.67,0,0,1-3.4,1.3,4.53,4.53,0,0,1-3.3-1.4,4.74,4.74,0,0,1,.1-6.7l16.3-16a4.19,4.19,0,0,1,1.4-.9.76.76,0,0,1,.4-.1l.4-.1c.1,0,.2,0,.2-.1h.8a6.66,6.66,0,0,1,1.39.2,4.48,4.48,0,0,1,2,1.2l16,16.3a4.59,4.59,0,0,1,0,6.6,5.15,5.15,0,0,1-3.29,1.4,4.53,4.53,0,0,1-3.3-1.4l-7.9-8.1v58A4.79,4.79,0,0,1,410.75,232.31ZM407,166.91v60.7a3.7,3.7,0,0,0,3.71,3.7,3.76,3.76,0,0,0,3.7-3.7v-60.4l9.7,9.8a3.63,3.63,0,0,0,2.6,1.1h0a3.63,3.63,0,0,0,2.6-1.1,3.68,3.68,0,0,0,0-5.3l-16-16.3a3.91,3.91,0,0,0-1.6-1,6.75,6.75,0,0,0-1.4-.2h-.3l-.6.2a.35.35,0,0,0-.2.1,5,5,0,0,0-1.2.8l-16.3,16a3.77,3.77,0,0,0-.1,5.3,3.62,3.62,0,0,0,5.2,0Z"/><path class="cls-3" d="M427,458.11a7.8,7.8,0,1,0,7.8,7.8,7.81,7.81,0,0,0-7.8-7.8"/><path class="cls-1" d="M427,474.21a8.3,8.3,0,1,1,8.3-8.3A8.27,8.27,0,0,1,427,474.21Zm0-15.6a7.3,7.3,0,1,0,7.3,7.3A7.33,7.33,0,0,0,427,458.61Z"/><rect class="cls-3" x="370.34" y="265.91" width="113.4" height="184.4"/><path class="cls-1" d="M484.25,450.81H369.84V265.41h114.4v185.4Zm-113.41-1h112.4V266.41H370.84Z"/><path class="cls-3" d="M469.44,233h-84.9a19.53,19.53,0,0,0-19.5,19.5v212.1a19.53,19.53,0,0,0,19.5,19.5h84.9a19.52,19.52,0,0,0,19.5-19.5V252.51a19.52,19.52,0,0,0-19.5-19.5m-54.6,16.5H439a1.3,1.3,0,0,1,0,2.6h-24.2a1.3,1.3,0,1,1,0-2.6M427,474.61a8.7,8.7,0,1,1,8.71-8.7,8.84,8.84,0,0,1-8.71,8.7m56.71-24.3H370.34V265.91h113.4v184.4Z"/><path class="cls-1" d="M469.44,484.61h-84.9a20.06,20.06,0,0,1-20-20V252.51a20.06,20.06,0,0,1,20-20h84.9a20.06,20.06,0,0,1,20,20v212.1A20.06,20.06,0,0,1,469.44,484.61Zm-84.9-251.1a19,19,0,0,0-19,19v212.1a19,19,0,0,0,19,19h84.9a19,19,0,0,0,19-19V252.51a19,19,0,0,0-19-19ZM427,475.11a9.2,9.2,0,1,1,9.21-9.2A9.24,9.24,0,0,1,427,475.11Zm0-17.3a8.2,8.2,0,1,0,8.21,8.2A8.24,8.24,0,0,0,427,457.81Zm57.21-7H369.84V265.41h114.4v185.4Zm-113.41-1h112.4V266.41H370.84Zm68.31-197.2H414.94a1.8,1.8,0,0,1,0-3.6h24.21a1.8,1.8,0,0,1,0,3.6ZM414.84,250a.8.8,0,0,0,0,1.6H439a.8.8,0,1,0,0-1.6Z"/><path class="cls-1" d="M444.65,393.61a2.2,2.2,0,0,1-.8-.1,4.72,4.72,0,0,1-2.9-2.7l-.3-.6a.86.86,0,0,1-.6-.3,3.07,3.07,0,0,1-.6-2.1v-.2h0v-.1a7.17,7.17,0,0,1,1.4-4.1,4.13,4.13,0,0,1,3.6-1.6,1.14,1.14,0,0,1,.8.3c.1,0,.2.1.29.1,1.71-.4,3.4,1.1,4,2.5a9.63,9.63,0,0,1,.5,3.2h0a3.12,3.12,0,0,1-.6,2,.71.71,0,0,1-.6.3c-.2.4-.6,1-.6,1.1a4.83,4.83,0,0,1-3.3,2.4.35.35,0,0,0-.29-.1m-3.81-4.4a.84.84,0,0,1,.7.4l.3.6a4,4,0,0,0,2.3,2.3,1.7,1.7,0,0,0,.7.1,3.9,3.9,0,0,0,2.6-1.9,6.42,6.42,0,0,1,.6-1,.68.68,0,0,1,.71-.4,2.68,2.68,0,0,0,.4-1.5,10,10,0,0,0-.4-2.9c-.4-1-1.8-2.3-3-1.9h-.21a1.47,1.47,0,0,1-.6-.2c-.2-.1-.4-.1-.6-.2a3.17,3.17,0,0,0-2.6,1.3,6.78,6.78,0,0,0-1.2,3.7h0v.1c-.1.5-.1,1.2.3,1.5h0"/><path class="cls-1" d="M448,388.91h0a.22.22,0,0,1-.2-.2,7.57,7.57,0,0,0-.1-1.5c0-.2-.3-.4-.7-.5s-.7-.1-1.1-.2a7.32,7.32,0,0,1-3.1-.9c-.2-.1-.5-.3-.6-.1a2.85,2.85,0,0,0-.8,1.4,9.15,9.15,0,0,0-.1,1.7v.1a.2.2,0,0,1-.4,0v-.1a9.15,9.15,0,0,1,.1-1.7,3.27,3.27,0,0,1,.9-1.6c.3-.4.9-.1,1.1.1a9.78,9.78,0,0,0,2.9.9c.4.1.7.1,1.1.2a1.1,1.1,0,0,1,1,.8,8.6,8.6,0,0,1,.1,1.6H448"/><path class="cls-1" d="M454.75,402.41c-.1-1.6-.5-4.5-1.71-5.7a7.69,7.69,0,0,0-2-1.3,11.36,11.36,0,0,0-3.89-.6c-.21,0-.3.1-.5.2a.72.72,0,0,0-.21.5,2.19,2.19,0,0,1-.9,1.7c-.2.1-.2.4,0,.6s.4.2.61,0a3.48,3.48,0,0,0,1.2-2.2,8.19,8.19,0,0,1,3.3.5,4.88,4.88,0,0,1,1.6,1c.7.7,1.2,2.5,1.4,5a25.44,25.44,0,0,1-9.1,1.4,30.76,30.76,0,0,1-5.3-.4,19.09,19.09,0,0,1-3.8-1c.2-2.4.7-4.3,1.4-5,1.2-1.2,3-1.4,4.6-1.6h.2a3.7,3.7,0,0,0,1.3,2.1c.1.1.3.2.4.3a1.94,1.94,0,0,1,.9,1.1,19.22,19.22,0,0,1,0,2.4v.3a.4.4,0,0,0,.8,0v-.3a12,12,0,0,0,0-2.7,2.86,2.86,0,0,0-1.2-1.6l-.3-.3a2,2,0,0,1-.9-1.7.52.52,0,0,0-.2-.4.6.6,0,0,0-.4-.1l-.6.1c-1.7.2-3.7.4-5.1,1.9-1.1,1.2-1.5,4.1-1.6,5.7,0,.2-.1,1,4.6,1.7a36.65,36.65,0,0,0,10.8,0c4.69-.6,4.6-1.4,4.6-1.6"/><path class="cls-1" d="M443.44,399.31a.42.42,0,0,1,.4.4.4.4,0,0,1-.8,0,.44.44,0,0,1,.4-.4"/><path class="cls-1" d="M443.44,401.11a.42.42,0,0,1,.4.4.4.4,0,0,1-.8,0,.37.37,0,0,1,.4-.4"/><path class="cls-1" d="M406.84,324.51a2.2,2.2,0,0,1-.8-.1,4.68,4.68,0,0,1-2.89-2.7l-.3-.6a.86.86,0,0,1-.6-.3,3.07,3.07,0,0,1-.6-2.1v-.2h0v-.1a7.24,7.24,0,0,1,1.39-4.1,4.16,4.16,0,0,1,3.61-1.6,1.11,1.11,0,0,1,.79.3c.1,0,.21.1.3.1,1.7-.4,3.4,1.1,4,2.5a9.63,9.63,0,0,1,.5,3.2h0a3.12,3.12,0,0,1-.6,2,.71.71,0,0,1-.6.3c-.2.4-.6,1-.6,1.1a4.83,4.83,0,0,1-3.3,2.4.77.77,0,0,0-.3-.1m-3.9-4.3a.87.87,0,0,1,.71.4l.29.6a4,4,0,0,0,2.3,2.3,1.7,1.7,0,0,0,.7.1,3.9,3.9,0,0,0,2.6-1.9,5.91,5.91,0,0,1,.61-1,.66.66,0,0,1,.7-.4,2.6,2.6,0,0,0,.4-1.5,9.67,9.67,0,0,0-.4-2.9c-.4-1-1.8-2.3-3-1.9h-.2a1.46,1.46,0,0,1-.61-.2c-.2-.1-.39-.1-.6-.2a3.17,3.17,0,0,0-2.6,1.3,6.78,6.78,0,0,0-1.2,3.7h0v.1a2,2,0,0,0,.3,1.5h0"/><path class="cls-1" d="M410.25,319.91h0a.22.22,0,0,1-.21-.2,7.57,7.57,0,0,0-.1-1.5c0-.2-.29-.4-.7-.5s-.7-.1-1.1-.2a7.32,7.32,0,0,1-3.1-.9c-.2-.1-.5-.3-.6-.1a2.85,2.85,0,0,0-.8,1.4,9.15,9.15,0,0,0-.1,1.7v.1a.2.2,0,0,1-.4,0v-.1a9.15,9.15,0,0,1,.1-1.7,3.27,3.27,0,0,1,.9-1.6c.3-.4.9-.1,1.1.1a9.78,9.78,0,0,0,2.9.9c.4.1.7.1,1.1.2a1.1,1.1,0,0,1,1,.8,8.6,8.6,0,0,1,.1,1.6c.1-.1,0,0-.09,0"/><path class="cls-1" d="M416.94,333.41c-.1-1.6-.5-4.5-1.7-5.7a6.29,6.29,0,0,0-2-1.3,11.42,11.42,0,0,0-3.9-.6c-.2,0-.3.1-.5.2a.76.76,0,0,0-.2.5,2.19,2.19,0,0,1-.9,1.7c-.2.1-.2.4,0,.6s.4.2.6,0a3,3,0,0,0,1.1-2.2,8.19,8.19,0,0,1,3.3.5,4.88,4.88,0,0,1,1.6,1c.7.7,1.2,2.5,1.4,5a25.43,25.43,0,0,1-9.09,1.4,30.68,30.68,0,0,1-5.3-.4,19.09,19.09,0,0,1-3.8-1c.2-2.4.7-4.3,1.4-5,1.2-1.2,3-1.4,4.6-1.6h.2a3.7,3.7,0,0,0,1.3,2.1c.1.1.3.2.4.3a1.94,1.94,0,0,1,.9,1.1,19.22,19.22,0,0,1,0,2.4v.3a.37.37,0,0,0,.4.4.37.37,0,0,0,.4-.4v-.1a12,12,0,0,0,0-2.7,2.92,2.92,0,0,0-1.21-1.6l-.29-.3a1.94,1.94,0,0,1-.9-1.7.5.5,0,0,0-.21-.4.57.57,0,0,0-.39-.1l-.61.1c-1.7.2-3.7.4-5.1,1.9-1.1,1.2-1.5,4.1-1.6,5.7,0,.2-.1,1,4.6,1.7a36.65,36.65,0,0,0,10.8,0c4.8-.9,4.7-1.6,4.7-1.8"/><path class="cls-1" d="M405.54,330.31a.42.42,0,0,1,.4.4.43.43,0,0,1-.4.4.42.42,0,0,1-.39-.4c.1-.2.19-.4.39-.4"/><path class="cls-1" d="M405.54,332a.42.42,0,0,1,.4.4.43.43,0,0,1-.4.4.42.42,0,0,1-.39-.4c.1-.2.19-.4.39-.4"/><path class="cls-3" d="M491.94,370.11c0,.6-.29,1-.7,1H362.84c-.4,0-.7-.5-.7-1v-18.9c0-.6.3-1,.7-1h128.4c.4,0,.7.5.7,1Z"/><path class="cls-1" d="M491.25,371.61H362.84a1.37,1.37,0,0,1-1.2-1.5v-18.9c0-.9.5-1.5,1.2-1.5h128.4a1.37,1.37,0,0,1,1.2,1.5v18.9A1.44,1.44,0,0,1,491.25,371.61Zm0-21H362.85c-.1,0-.2.2-.2.5V370c0,.3.1.5.2.5h128.4a.77.77,0,0,0,.2-.5v-18.9A.83.83,0,0,0,491.25,350.61Z"/><path class="cls-4" d="M371.84,359v-2.6a3.61,3.61,0,0,1,7.2,0V359h.71a1.24,1.24,0,0,1,1.2,1.3v6.5a1.24,1.24,0,0,1-1.2,1.3h-8.6a1.24,1.24,0,0,1-1.21-1.3v-6.5a1.24,1.24,0,0,1,1.21-1.3Zm-.59,7.8h8.5v-6.5h-8.5Zm6.5-7.8v-2.6a2.32,2.32,0,0,0-4.6,0V359Zm-3,3.8a.6.6,0,0,1,1.2,0v2a.6.6,0,1,1-1.2,0Z"/><path class="cls-1" d="M391.15,359a6.53,6.53,0,0,1,1.5-.1,2.69,2.69,0,0,1,1.7.5,1.94,1.94,0,0,1,0,2.6,2.74,2.74,0,0,1-1.9.7c-.2,0-.5,0-.6-.1V365h-.8v-6Zm.79,3c.21,0,.4.1.71.1,1,0,1.5-.5,1.5-1.3s-.61-1.2-1.4-1.2a1.35,1.35,0,0,0-.71.1V362Z"/><path class="cls-1" d="M396.25,363.21l-.6,1.9h-.8L397,359h1l2.1,6.1h-1l-.7-1.9Zm2-.7-.6-1.8c-.11-.4-.21-.8-.3-1.1h0c-.1.4-.2.7-.3,1.1l-.6,1.8Z"/><path class="cls-1" d="M400.65,364.11a3.17,3.17,0,0,0,1.39.4c.8,0,1.3-.4,1.3-1s-.3-.9-1.1-1.2c-1-.4-1.6-.9-1.6-1.7a1.77,1.77,0,0,1,2-1.7,2.06,2.06,0,0,1,1.3.3l-.2.6a2.54,2.54,0,0,0-1.2-.3c-.8,0-1.1.5-1.1.9,0,.6.4.9,1.2,1.2,1,.4,1.6.9,1.6,1.8a1.88,1.88,0,0,1-2.1,1.8,3.77,3.77,0,0,1-1.6-.4Z"/><path class="cls-1" d="M405.15,364.11a3.17,3.17,0,0,0,1.39.4c.8,0,1.3-.4,1.3-1s-.3-.9-1.1-1.2c-1-.4-1.6-.9-1.6-1.7a1.77,1.77,0,0,1,2-1.7,2.06,2.06,0,0,1,1.3.3l-.2.6a2.54,2.54,0,0,0-1.2-.3c-.8,0-1.1.5-1.1.9,0,.6.4.9,1.2,1.2,1,.4,1.6.9,1.6,1.8a1.88,1.88,0,0,1-2.1,1.8,3.77,3.77,0,0,1-1.6-.4Z"/><path class="cls-1" d="M411.44,364.61a.57.57,0,0,1,.5-.6c.3,0,.5.2.5.6a.56.56,0,0,1-.5.6A.57.57,0,0,1,411.44,364.61Z"/><path class="cls-1" d="M413.25,364.61a.56.56,0,0,1,.5-.6c.29,0,.5.2.5.6a.57.57,0,0,1-.5.6A.64.64,0,0,1,413.25,364.61Z"/><path class="cls-1" d="M415.15,364.61a.56.56,0,0,1,.5-.6c.29,0,.5.2.5.6a.57.57,0,0,1-.5.6A.55.55,0,0,1,415.15,364.61Z"/><path class="cls-1" d="M417,364.61a.57.57,0,0,1,.5-.6c.3,0,.5.2.5.6a.56.56,0,0,1-.5.6A.57.57,0,0,1,417,364.61Z"/><path class="cls-1" d="M418.94,364.61a.57.57,0,0,1,.5-.6c.3,0,.5.2.5.6a.56.56,0,0,1-.5.6A.57.57,0,0,1,418.94,364.61Z"/><path class="cls-1" d="M420.75,364.61a.56.56,0,0,1,.5-.6c.29,0,.5.2.5.6a.57.57,0,0,1-.5.6A.55.55,0,0,1,420.75,364.61Z"/><path class="cls-1" d="M422.65,364.61a.56.56,0,0,1,.5-.6c.29,0,.5.2.5.6a.57.57,0,0,1-.5.6A.55.55,0,0,1,422.65,364.61Z"/><path class="cls-1" d="M424.54,364.61a.57.57,0,0,1,.5-.6c.3,0,.5.2.5.6a.56.56,0,0,1-.5.6A.57.57,0,0,1,424.54,364.61Z"/><path class="cls-1" d="M426.44,364.61a.57.57,0,0,1,.5-.6c.3,0,.5.2.5.6a.56.56,0,0,1-.5.6A.57.57,0,0,1,426.44,364.61Z"/><path class="cls-1" d="M428.25,364.61a.56.56,0,0,1,.5-.6c.29,0,.5.2.5.6a.57.57,0,0,1-.5.6A.55.55,0,0,1,428.25,364.61Z"/><path class="cls-1" d="M430.15,364.61a.56.56,0,0,1,.5-.6c.29,0,.5.2.5.6a.57.57,0,0,1-.5.6A.55.55,0,0,1,430.15,364.61Z"/><path class="cls-1" d="M432,364.61a.57.57,0,0,1,.5-.6c.3,0,.5.2.5.6a.56.56,0,0,1-.5.6A.57.57,0,0,1,432,364.61Z"/><path class="cls-1" d="M433.94,364.61a.57.57,0,0,1,.5-.6c.3,0,.5.2.5.6a.56.56,0,0,1-.5.6A.57.57,0,0,1,433.94,364.61Z"/><path class="cls-1" d="M435.75,364.61a.56.56,0,0,1,.5-.6c.29,0,.5.2.5.6a.57.57,0,0,1-.5.6A.55.55,0,0,1,435.75,364.61Z"/><path class="cls-1" d="M437.65,364.61a.56.56,0,0,1,.5-.6c.29,0,.5.2.5.6a.57.57,0,0,1-.5.6A.55.55,0,0,1,437.65,364.61Z"/><path class="cls-1" d="M439.54,364.61a.57.57,0,0,1,.5-.6c.3,0,.5.2.5.6a.56.56,0,0,1-.5.6A.57.57,0,0,1,439.54,364.61Z"/><path class="cls-1" d="M441.44,364.61a.57.57,0,0,1,.5-.6c.3,0,.5.2.5.6a.56.56,0,0,1-.5.6A.57.57,0,0,1,441.44,364.61Z"/><path class="cls-1" d="M443.25,364.61a.56.56,0,0,1,.5-.6c.29,0,.5.2.5.6a.57.57,0,0,1-.5.6A.55.55,0,0,1,443.25,364.61Z"/><path class="cls-1" d="M445.15,364.61a.56.56,0,0,1,.5-.6c.29,0,.5.2.5.6a.57.57,0,0,1-.5.6A.55.55,0,0,1,445.15,364.61Z"/><path class="cls-1" d="M447,364.61a.57.57,0,0,1,.5-.6c.3,0,.5.2.5.6a.56.56,0,0,1-.5.6A.57.57,0,0,1,447,364.61Z"/><path class="cls-1" d="M448.84,364.61a.56.56,0,0,1,.5-.6c.3,0,.5.2.5.6a.56.56,0,0,1-.5.6A.66.66,0,0,1,448.84,364.61Z"/><path class="cls-1" d="M450.75,364.61a.56.56,0,0,1,.5-.6c.29,0,.5.2.5.6a.57.57,0,0,1-.5.6A.55.55,0,0,1,450.75,364.61Z"/><path class="cls-1" d="M452.65,364.61a.56.56,0,0,1,.5-.6c.29,0,.5.2.5.6a.57.57,0,0,1-.5.6A.55.55,0,0,1,452.65,364.61Z"/><path class="cls-1" d="M454.54,364.61a.57.57,0,0,1,.5-.6c.3,0,.5.2.5.6a.56.56,0,0,1-.5.6A.57.57,0,0,1,454.54,364.61Z"/><path class="cls-1" d="M456.34,364.61a.56.56,0,0,1,.5-.6c.3,0,.5.2.5.6a.56.56,0,0,1-.5.6A.66.66,0,0,1,456.34,364.61Z"/><path class="cls-1" d="M458.25,364.61a.56.56,0,0,1,.5-.6c.29,0,.5.2.5.6a.57.57,0,0,1-.5.6A.55.55,0,0,1,458.25,364.61Z"/><path class="cls-1" d="M460.15,364.61a.56.56,0,0,1,.5-.6c.29,0,.5.2.5.6a.57.57,0,0,1-.5.6A.55.55,0,0,1,460.15,364.61Z"/><path class="cls-1" d="M462,364.61a.57.57,0,0,1,.5-.6c.3,0,.5.2.5.6a.56.56,0,0,1-.5.6A.57.57,0,0,1,462,364.61Z"/><path class="cls-1" d="M463.84,364.61a.56.56,0,0,1,.5-.6c.3,0,.5.2.5.6a.56.56,0,0,1-.5.6A.66.66,0,0,1,463.84,364.61Z"/><path class="cls-1" d="M465.75,364.61a.56.56,0,0,1,.5-.6c.29,0,.5.2.5.6a.57.57,0,0,1-.5.6A.55.55,0,0,1,465.75,364.61Z"/><path class="cls-1" d="M467.65,364.61a.56.56,0,0,1,.5-.6c.29,0,.5.2.5.6a.57.57,0,0,1-.5.6A.55.55,0,0,1,467.65,364.61Z"/><path class="cls-1" d="M469.54,364.61a.57.57,0,0,1,.5-.6c.3,0,.5.2.5.6a.56.56,0,0,1-.5.6A.57.57,0,0,1,469.54,364.61Z"/><path class="cls-1" d="M471.34,364.61a.56.56,0,0,1,.5-.6c.3,0,.5.2.5.6a.56.56,0,0,1-.5.6A.66.66,0,0,1,471.34,364.61Z"/><path class="cls-1" d="M473.25,364.61a.56.56,0,0,1,.5-.6c.29,0,.5.2.5.6a.57.57,0,0,1-.5.6A.55.55,0,0,1,473.25,364.61Z"/><path class="cls-1" d="M475.15,364.61a.56.56,0,0,1,.5-.6c.29,0,.5.2.5.6a.57.57,0,0,1-.5.6A.55.55,0,0,1,475.15,364.61Z"/><path class="cls-1" d="M477,364.61a.57.57,0,0,1,.5-.6c.3,0,.5.2.5.6a.56.56,0,0,1-.5.6A.57.57,0,0,1,477,364.61Z"/><path class="cls-1" d="M478.84,364.61a.56.56,0,0,1,.5-.6c.3,0,.5.2.5.6a.56.56,0,0,1-.5.6A.66.66,0,0,1,478.84,364.61Z"/><path class="cls-4" d="M457,325.51a4.26,4.26,0,0,1-4.29,4.3h-23.4a4.27,4.27,0,0,1-4.3-4.3v-5.2a4.27,4.27,0,0,1,4.3-4.3h23.4a4.26,4.26,0,0,1,4.29,4.3Z"/><path class="cls-5" d="M452.75,330.31h-23.4a4.87,4.87,0,0,1-4.8-4.8v-5.2a4.87,4.87,0,0,1,4.8-4.8h23.4a4.86,4.86,0,0,1,4.79,4.8v5.2A4.74,4.74,0,0,1,452.75,330.31Zm-23.41-13.8a3.8,3.8,0,0,0-3.8,3.8v5.2a3.8,3.8,0,0,0,3.8,3.8h23.4a3.8,3.8,0,0,0,3.8-3.8v-5.2a3.8,3.8,0,0,0-3.8-3.8Z"/><path class="cls-3" d="M432.75,322.91a1.3,1.3,0,1,1-1.3-1.3,1.4,1.4,0,0,1,1.3,1.3"/><path class="cls-3" d="M437.44,322.91a1.3,1.3,0,1,1-1.29-1.3,1.4,1.4,0,0,1,1.29,1.3"/><path class="cls-3" d="M442.15,322.91a1.3,1.3,0,1,1-1.3-1.3,1.33,1.33,0,0,1,1.3,1.3"/><path class="cls-3" d="M447.15,322.91a1.3,1.3,0,1,1-1.3-1.3,1.33,1.33,0,0,1,1.3,1.3"/><path class="cls-3" d="M451.94,322.91a1.3,1.3,0,1,1-1.29-1.3,1.32,1.32,0,0,1,1.29,1.3"/><path class="cls-4" d="M428.15,399.71a4.27,4.27,0,0,1-4.3,4.3h-23.4a4.27,4.27,0,0,1-4.3-4.3v-5.2a4.27,4.27,0,0,1,4.3-4.3h23.4a4.27,4.27,0,0,1,4.3,4.3Z"/><path class="cls-5" d="M423.84,404.51h-23.4a4.86,4.86,0,0,1-4.79-4.8v-5.2a4.86,4.86,0,0,1,4.79-4.8h23.4a4.87,4.87,0,0,1,4.8,4.8v5.2A4.73,4.73,0,0,1,423.84,404.51Zm-23.4-13.8a3.79,3.79,0,0,0-3.79,3.8v5.2a3.8,3.8,0,0,0,3.79,3.8h23.4a3.8,3.8,0,0,0,3.8-3.8v-5.2a3.8,3.8,0,0,0-3.8-3.8Z"/><path class="cls-3" d="M403.84,397.11a1.3,1.3,0,1,1-1.3-1.3,1.39,1.39,0,0,1,1.3,1.3"/><path class="cls-3" d="M408.54,397.11a1.3,1.3,0,1,1-1.29-1.3,1.32,1.32,0,0,1,1.29,1.3"/><path class="cls-3" d="M413.34,397.11a1.3,1.3,0,1,1-1.3-1.3,1.39,1.39,0,0,1,1.3,1.3"/><path class="cls-3" d="M418.34,397.11a1.3,1.3,0,1,1-1.3-1.3,1.39,1.39,0,0,1,1.3,1.3"/><path class="cls-3" d="M423,397.11a1.3,1.3,0,1,1-1.29-1.3,1.4,1.4,0,0,1,1.29,1.3"/><path class="cls-1" d="M95,302.11a115.92,115.92,0,0,1-1.7-11.9l1-.1a95.82,95.82,0,0,0,1.7,11.8Zm-1.1-23.9h-1q.15-6,.9-12l1,.1A114.09,114.09,0,0,0,93.85,278.21Zm3.1-23.7-1-.2a115.61,115.61,0,0,1,3.4-11.6l.9.3C99,246.81,97.85,250.71,97,254.51Zm8-22.5-.91-.4a107,107,0,0,1,5.81-10.6l.9.5A105.43,105.43,0,0,0,105,232Zm12.5-20.2-.81-.6a114.46,114.46,0,0,1,7.9-9.1l.7.7A114.42,114.42,0,0,0,117.45,211.81ZM134,194.61l-.59-.8a109,109,0,0,1,9.59-7.2l.6.8Q138.54,190.86,134,194.61Zm19.81-13.3-.5-.9a98.92,98.92,0,0,1,11-5l.39.9C160.94,177.81,157.35,179.51,153.85,181.31Zm22.09-8.7-.3-1c2.8-.8,5.7-1.4,8.5-2l.2,1C181.65,171.21,178.74,171.81,175.94,172.61Z"/><path class="cls-1" d="M549.75,274a27.32,27.32,0,0,1-1.6-9.4,22.6,22.6,0,0,1,.1-2.6l1,.1a20.9,20.9,0,0,0-.1,2.5,26.06,26.06,0,0,0,1.6,9.1Zm51.09-21.4a26.16,26.16,0,0,0-7.3-9.2l.6-.8a27.76,27.76,0,0,1,7.5,9.5Zm-48-1.7-.9-.5a26.92,26.92,0,0,1,8.2-8.9l.6.8A27.15,27.15,0,0,0,552.84,250.91Zm30.3-12.7a27.15,27.15,0,0,0-11.7-.4l-.2-1a29,29,0,0,1,12.1.4Z"/><path class="cls-1" d="M230.74,286.21a25.92,25.92,0,0,1-4.8-.4l.2-1a27.17,27.17,0,0,0,11.7-.5l.3,1A31.71,31.71,0,0,1,230.74,286.21Zm-16.09-5a27.21,27.21,0,0,1-8.3-8.9l.89-.5a27.35,27.35,0,0,0,8,8.6Zm34.09-1.5-.6-.8a27.05,27.05,0,0,0,7.2-9.2l.9.4A27.2,27.2,0,0,1,248.74,279.71Zm-46.09-18.9a24.69,24.69,0,0,1-.11-2.9,29.06,29.06,0,0,1,1.5-9.2l.9.3a26.68,26.68,0,0,0-1.5,8.8,27.15,27.15,0,0,0,.1,2.8Z"/><path class="cls-1" d="M696.84,296.81h-1a23.23,23.23,0,0,1,2.41-9.8l.9.5A20.31,20.31,0,0,0,696.84,296.81Zm10-18.2-.59-.8a77.9,77.9,0,0,1,10.2-6.5l.5.9A88.74,88.74,0,0,0,706.84,278.61Zm20.61-12.1-.5-.9a47.4,47.4,0,0,0,9.2-7.4l.7.7A47,47,0,0,1,727.45,266.51ZM744,249.11l-.9-.5a40.1,40.1,0,0,0,4.1-11.1l1,.2A41.59,41.59,0,0,1,744,249.11Zm4.1-23.3a41.69,41.69,0,0,0-2.6-11.5l.91-.4a40,40,0,0,1,2.59,11.8Zm-8.39-21.9a32.93,32.93,0,0,0-2.3-2.8,45.7,45.7,0,0,0-6-5.6l.59-.8a40.71,40.71,0,0,1,6.1,5.7c.8.9,1.6,1.9,2.4,2.9Zm-53.11-14.3-.4-.9a46.19,46.19,0,0,1,11.7-3.3l.1,1A44,44,0,0,0,686.64,189.61Zm34.61-.1a46,46,0,0,0-11.41-3.1l.1-1a44.24,44.24,0,0,1,11.7,3.2Z"/></svg>